<?xml version="1.0" encoding="utf-8"?>
<!-- Generator: Adobe Illustrator 16.0.4, SVG Export Plug-In . SVG Version: 6.00 Build 0)  -->
<!DOCTYPE svg PUBLIC "-//W3C//DTD SVG 1.1//EN" "http://www.w3.org/Graphics/SVG/1.1/DTD/svg11.dtd">
<svg version="1.1" id="Layer_1" xmlns="http://www.w3.org/2000/svg" xmlns:xlink="http://www.w3.org/1999/xlink" x="0px" y="0px"
	 width="61.121px" height="40.545px" viewBox="0 0 61.121 40.545" enable-background="new 0 0 61.121 40.545" xml:space="preserve">
<path opacity="0.9" fill="#FFFFFF" d="M26.612,12.962c-2.872-3.206-6.994-6.294-12.004-6.294c-5.04,0-12.199,1.068-13.282,0.705
	C0.258,7.023,1.694,5.233,7.417,3.45c5.743-1.789,15.053-4.291,17.576-0.369c2.504,3.942,5.704,7.293,6.798,7.293
	c1.082,0,3.436-0.732,5.187,0.406c1.174,0.797,0.917,2.688,0.917,2.688s5.029-1.789,6.444,0.694
	c1.436,2.504,2.608,6.966,5.028,10.571c2.151,3.187,2.523,5.058-1.638,1.751c-2.066-1.652-4.491-5.311-6.982-7.362
	c-2.026-1.682-4.19-1.95-5.96-1.77c-4.183,2.173-8.358,2.022-9.794,2.022c-1.455,0-2.871,1.418-4.655-1.086
	c-0.635-0.885-1.257-1.472-1.1-1.95c0.314-0.872,2.162-1.19,3.801-1.19C25.005,14.162,25.426,13.762,26.612,12.962z"/>
</svg>
