<?xml version="1.0" encoding="utf-8"?>
<!-- Generator: Adobe Illustrator 16.0.4, SVG Export Plug-In . SVG Version: 6.00 Build 0)  -->
<!DOCTYPE svg PUBLIC "-//W3C//DTD SVG 1.1//EN" "http://www.w3.org/Graphics/SVG/1.1/DTD/svg11.dtd">
<svg version="1.1" id="Layer_1" xmlns="http://www.w3.org/2000/svg" xmlns:xlink="http://www.w3.org/1999/xlink" x="0px" y="0px"
	 width="61.121px" height="40.545px" viewBox="0 0 61.121 40.545" enable-background="new 0 0 61.121 40.545" xml:space="preserve">
<path opacity="0.8" fill="#FFFFFF" d="M23.978,21.384c0,0,2.446-1.082,4.489-0.047c1.402-1.403,3.549-1.619,8.865-3.739
	c5.558-2.256,7.912-6.979,10.216-10.214c1.401-0.47,1.276,9.527-3.363,13.685c-4.616,4.177-10.868,3.323-13.681,4.675
	c-2.803,1.354-6.144,6.325-10.567,5.443c-0.366,0.568-2.786,1.271-4.488,0.919c-1.37-0.27-2.154-1.456-2.014-2.403
	c2.212-0.202,4.534-1.727,4.534-1.727l1.293-2.232c0,0-10.224-0.552-14.863-8.877C-0.244,8.551-0.894,0.507,0.974,0.022
	C2.819-0.434,2.678,6.25,9.639,10.873C16.583,15.494,21.657,18.152,23.978,21.384z"/>
</svg>
