<?xml version="1.0" encoding="utf-8"?>
<!-- Generator: Adobe Illustrator 16.0.4, SVG Export Plug-In . SVG Version: 6.00 Build 0)  -->
<!DOCTYPE svg PUBLIC "-//W3C//DTD SVG 1.1//EN" "http://www.w3.org/Graphics/SVG/1.1/DTD/svg11.dtd">
<svg version="1.1" id="Layer_1" xmlns="http://www.w3.org/2000/svg" xmlns:xlink="http://www.w3.org/1999/xlink" x="0px" y="0px"
	 width="640px" height="480px" viewBox="0 0 640 480" enable-background="new 0 0 640 480" xml:space="preserve">
<rect x="133" y="135" fill="#6EC6CE" width="357" height="273"/>
<linearGradient id="SVGID_1_" gradientUnits="userSpaceOnUse" x1="307.4009" y1="388.998" x2="307.4009" y2="119.5222">
	<stop  offset="0" style="stop-color:#000000"/>
	<stop  offset="0.0925" style="stop-color:#060606"/>
	<stop  offset="0.2178" style="stop-color:#171717"/>
	<stop  offset="0.3619" style="stop-color:#343434"/>
	<stop  offset="0.5201" style="stop-color:#5C5C5C"/>
	<stop  offset="0.6899" style="stop-color:#8F8F8F"/>
	<stop  offset="0.8664" style="stop-color:#CCCCCC"/>
	<stop  offset="1" style="stop-color:#FFFFFF"/>
</linearGradient>
<path opacity="0.8" fill="url(#SVGID_1_)" d="M463.234,362.791c0-9.997-5.744-18.628-14.104-22.868
	c0.766-2.085,1.217-4.324,1.217-6.679c0-5.538-2.336-10.518-6.061-14.059c6.471-6.271,10.492-15.034,10.492-24.751
	c0-19.097-15.5-34.567-34.629-34.567c-4.908,0-9.582,1.029-13.805,2.867c-1.287-6.975-7.393-12.253-14.756-12.253
	c-5.436,0-10.174,2.89-12.818,7.199c-4.182-6.66-11.271-11.283-19.498-12.118c0.324-1.501,0.5-3.055,0.5-4.662
	c0-12.117-9.865-21.978-22.025-21.978c-6.328,0-12.01,2.688-16.018,6.942c1.035-3.024,1.621-6.264,1.621-9.652
	c0-16.308-13.262-29.547-29.613-29.547c-6.92,0-13.287,2.39-18.328,6.362c-5.207-11.551-16.818-19.575-30.313-19.575
	c-17.861,0-32.433,14.048-33.21,31.677c-1.068-0.147-2.146-0.269-3.246-0.269c-5.869,0-11.168,2.308-15.123,6.027
	c-5.937-9.552-16.517-15.89-28.595-15.89c-4.741,0-9.256,0.986-13.355,2.755v191.244c86.843,0,212.931,0,290.501,0
	c0-0.315,0-0.649,0-0.965C454.094,385.878,463.234,375.407,463.234,362.791z"/>
</svg>
