<?xml version="1.0" encoding="utf-8"?>
<!-- Generator: Adobe Illustrator 16.0.4, SVG Export Plug-In . SVG Version: 6.00 Build 0)  -->
<!DOCTYPE svg PUBLIC "-//W3C//DTD SVG 1.1//EN" "http://www.w3.org/Graphics/SVG/1.1/DTD/svg11.dtd">
<svg version="1.1" id="Layer_1" xmlns="http://www.w3.org/2000/svg" xmlns:xlink="http://www.w3.org/1999/xlink" x="0px" y="0px"
	 width="164.758px" height="277.516px" viewBox="0 0 164.758 277.516" enable-background="new 0 0 164.758 277.516"
	 xml:space="preserve">
<linearGradient id="SVGID_1_" gradientUnits="userSpaceOnUse" x1="-1563.1851" y1="-1515.9102" x2="-389.5919" y2="-323.9816">
	<stop  offset="0" style="stop-color:#9DBA46"/>
	<stop  offset="0.8061" style="stop-color:#5C7E41"/>
</linearGradient>
<path fill="url(#SVGID_1_)" d="M1.494,84.3c0.956-4.793,2.099-9.587,3.455-14.082C2.344,74.63,0.486,79.378-0.808,84.16
	C-0.877,84.405-0.939,84.653-1,84.899v15.426c0.072-0.634,0.149-1.27,0.229-1.917C-0.207,93.898,0.542,89.099,1.494,84.3z
	 M-1,132.792c1.756-0.875,3.549-1.722,5.407-2.507c0.29-0.121-2.551-0.784-5.407-1.442V132.792z M89.508,133.155
	c2.192,0.124,4.348,0.358,5.649,0.702c-2.151-1.287-4.325-1.813-6.327-1.995c-2.004-0.181-3.838-0.021-5.299,0.07
	c-0.83,0.049-1.57,0.094-2.218,0.076c-0.116-0.108-0.229-0.218-0.349-0.322c0.037-0.006,0.066-0.01,0.101-0.014
	c0.194-0.026,0.403-0.059,0.629-0.087c1.793-0.257,4.446-0.485,7.097-0.562c0.137-0.004,0.274-0.008,0.412-0.012
	c2.81-0.063,5.569,0.053,7.248,0.512c-2.479-1.364-5.383-1.762-8.125-1.745c-2.58,0.006-5.018,0.38-6.845,0.655
	c-0.175,0.024-0.354,0.054-0.522,0.079c-0.375,0.057-0.792,0.108-1.203,0.155c-0.764-0.645-1.549-1.27-2.355-1.881
	c0.404-0.042,0.932-0.1,1.604-0.187c2.097-0.278,5.295-0.483,8.443-0.53c3.148-0.042,6.24,0.071,8.145,0.428
	c-3.205-1.617-6.369-2.148-9.248-2.202c-2.883-0.057-5.48,0.358-7.557,0.636c-1.311,0.173-2.46,0.318-3.458,0.333
	c-0.186-0.133-0.38-0.263-0.571-0.397c0.54-0.092,1.181-0.223,1.927-0.381c2.148-0.457,5.749-1.016,9.351-1.311
	c3.604-0.292,7.203-0.324,9.354,0.281c-2.799-1.445-6.431-1.708-9.917-1.496c-3.488,0.216-6.824,0.906-9.037,1.375
	c-0.932,0.2-2.37,0.408-3.193,0.504c-0.57-0.367-1.146-0.722-1.729-1.076c0.648-0.184,1.463-0.445,2.369-0.75
	c0.334-0.117,0.692-0.235,1.059-0.359c2.36-0.805,5.733-1.637,9.108-2.177c0.463-0.079,0.936-0.151,1.407-0.211
	c3.645-0.514,7.097-0.627,9,0.055c-1.8-0.961-3.704-1.471-5.618-1.662c-1.752-0.169-3.512-0.061-5.213,0.213
	c-3.412,0.55-6.62,1.767-9.228,2.708c-0.252,0.091-0.499,0.175-0.736,0.261c-1.267,0.465-2.695,0.885-3.594,1.07
	c-0.491-0.287-0.983-0.567-1.484-0.839c0.973-0.33,2.588-0.896,4.145-1.54c2.975-1.232,7.413-2.378,11.575-2.983
	c4.16-0.606,8.045-0.672,9.911,0.256c-2.012-1.244-4.001-1.926-5.948-2.208c-1.953-0.277-3.861-0.155-5.714,0.2
	c-3.704,0.713-7.169,2.371-10.269,3.651c-2.178,0.904-4.065,1.679-5.215,1.836c-0.842-0.432-1.69-0.845-2.554-1.242
	c0.598-0.411,1.343-0.937,2.151-1.553c0.48-0.365,1.005-0.752,1.557-1.14c2.761-1.931,7.084-3.705,11.402-4.81
	c0.29-0.07,0.58-0.14,0.861-0.209c4.777-1.134,9.426-1.412,11.833-0.12c-3.042-2.051-5.829-3.117-8.384-3.491
	c-0.045-0.007-0.084-0.011-0.125-0.02c-2.343-0.317-4.513-0.103-6.5,0.497c-0.32,0.096-0.632,0.205-0.944,0.317
	c-3.662,1.363-6.708,3.88-9.306,5.962c-0.524,0.427-1.026,0.84-1.506,1.226c-1.375,1.121-2.521,1.989-3.397,2.299
	c-1.354-0.564-2.737-1.074-4.13-1.552c0.567-0.414,1.238-0.947,2.009-1.574c0.447-0.359,0.941-0.749,1.482-1.155
	c1.279-0.97,2.94-2.039,4.812-3.132c2.581-1.509,5.559-3.064,8.506-4.472c0.35-0.165,0.693-0.326,1.035-0.485
	c5.518-2.57,10.751-4.532,12.869-4.581c-2.611-0.558-5.33-0.415-8.01,0.277c-0.051,0.016-0.104,0.029-0.152,0.042
	c-2.605,0.678-5.201,1.739-7.665,3.05c-0.118,0.063-0.236,0.128-0.358,0.192c-4.732,2.569-8.985,5.904-12.007,8.363
	c-0.371,0.298-0.721,0.587-1.056,0.856c-1.105,0.898-2.09,1.729-2.764,2.171c-0.922-0.293-1.851-0.563-2.787-0.819
	c0.585-0.513,1.279-1.168,2.108-1.942c1.47-1.384,3.732-3.073,6.381-4.839c2.649-1.762,5.671-3.609,8.666-5.296
	c5.988-3.38,11.833-6.146,14.215-6.463c-2.691-0.439-5.543-0.028-8.399,0.924c-1.553,0.518-3.102,1.199-4.632,1.986
	c1.282-0.767,2.547-1.496,3.765-2.162c3.129-1.706,5.936-3.002,7.893-3.594c-2.662-0.465-5.563,0.082-8.518,1.262
	c-2.946,1.177-5.942,2.985-8.79,5.046c-2.936,2.115-5.708,4.499-8.117,6.739c-2.128,1.986-3.979,3.863-5.387,5.341
	c-0.176,0.181-0.344,0.36-0.503,0.536c-0.602,0.632-1.15,1.225-1.63,1.722c-0.998-0.229-2.001-0.436-3.007-0.621
	c0.385-0.448,0.8-0.937,1.249-1.461c2.849-3.353,8.194-7.953,14.049-12.217c2.932-2.129,5.985-4.175,8.917-5.936
	c2.932-1.762,5.745-3.239,8.185-4.234c-2.626-0.485-5.581,0.198-8.626,1.602c-3.046,1.401-6.177,3.526-9.161,5.924
	c-2.985,2.397-5.826,5.071-8.284,7.568c-2.452,2.498-4.524,4.826-5.977,6.53c-0.64,0.75-1.211,1.421-1.714,1.996
	c-0.945-0.156-1.889-0.296-2.835-0.418c0.438-0.546,0.933-1.189,1.499-1.925c2.746-3.586,8.109-8.921,14.061-13.842
	c2.977-2.462,6.099-4.819,9.11-6.802c3.012-1.984,5.925-3.594,8.464-4.564c-2.924-0.472-6.076,0.363-9.24,1.998
	c-3.165,1.639-6.348,4.073-9.333,6.799c-2.993,2.725-5.794,5.735-8.192,8.521c-2.399,2.789-4.402,5.353-5.803,7.178
	c-0.769,1.003-1.42,1.844-1.943,2.469c-0.398-0.042-0.798-0.078-1.203-0.115c0.335-0.476,0.717-1.023,1.143-1.646
	c2.639-3.826,8.022-9.893,14.067-15.469c3.023-2.792,6.214-5.459,9.309-7.667c3.095-2.208,6.099-3.95,8.742-4.894
	c-3.226-0.465-6.568,0.529-9.857,2.398c-3.285,1.872-6.514,4.618-9.507,7.668c-2.997,3.05-5.756,6.4-8.098,9.473
	c-2.35,3.075-4.279,5.875-5.623,7.825c-0.61,0.883-1.121,1.625-1.531,2.189c-0.755-0.052-1.515-0.098-2.269-0.132
	c0.03-0.062,0.061-0.127,0.075-0.146c0.092-0.119,0.468-0.755,0.579-0.911c0.362-0.585,0.747-1.202,1.158-1.842
	c2.033-3.222,4.611-6.632,7.45-9.963c2.312-2.715,4.725-5.299,7.162-7.658c0.427-0.413,0.849-0.817,1.273-1.209
	c2.564-2.415,5.1-4.536,7.469-6.328c0.453-0.345,0.901-0.675,1.341-0.996c1.61-1.165,3.098-2.146,4.426-2.953
	c-0.083-0.477-0.285-0.571-0.613-0.279c-0.434,0.082-0.869,0.193-1.313,0.322c-2.708,0.781-5.547,2.417-8.415,4.699
	c-3.065,2.437-6.125,5.629-9.137,9.189c-2.322,2.746-4.573,5.685-6.599,8.579c-1.781,2.539-3.365,4.967-4.64,7.015
	c-0.385,0.56-1.245,1.998-1.474,2.293l0.583,0.155c-1.378-0.054-2.761-0.075-4.146-0.056c1.834-4.208,4.613-9.06,8.026-13.829
	c0.692-0.96,1.416-1.907,2.146-2.84c2.147-2.711,4.424-5.283,6.77-7.647c1.172-1.179,2.376-2.307,3.563-3.376
	c1.664-1.471,3.312-2.835,4.946-4.056c2.479-1.854,4.862-3.374,6.978-4.595c-2.923,0.227-5.79,1.069-8.577,2.431
	c-2.782,1.361-5.479,3.239-8.052,5.548c-3.537,3.185-6.694,7.024-9.42,11.199c-3.711,5.702-6.32,11.76-8.14,16.425
	c-0.046,0.167-0.167,0.495-0.277,0.789c-1.664,0.067-3.332,0.185-4.996,0.351c1.269-3.297,5.48-10.655,10.969-18.599
	c2.756-3.993,5.844-8.134,9.039-11.98c3.195-3.844,6.503-7.396,9.708-10.208c-2.116,1.015-4.149,2.296-6.083,3.776
	c-1.938,1.48-3.777,3.157-5.512,4.962c-3.473,3.615-6.548,7.738-9.17,11.814c-5.242,8.158-8.675,16.126-9.929,19.444l-0.304,0.917
	c-1.051,0.121-2.102,0.262-3.152,0.422c1.759-4.134,15.914-34.326,27.603-44.446c-10.078,6.599-17.651,18.911-22.513,28.931
	c0.993-2.132,2.075-4.348,3.214-6.606c2.166-4.277,4.541-8.677,6.974-12.837c2.44-4.164,4.938-8.086,7.344-11.408
	c-3.396,1.846-6.463,4.99-9.214,8.811c-2.74,3.824-5.162,8.325-7.24,12.892c-4.163,9.131-6.976,18.506-8.368,23.181
	c-0.226,0.748-0.42,1.399-0.595,1.966c-0.327,0.059-0.646,0.132-0.967,0.197c0.152-0.538,0.327-1.158,0.526-1.858
	c1.275-4.54,4.401-12.618,8.269-21.316c1.934-4.349,4.059-8.852,6.222-13.143c2.171-4.292,4.382-8.372,6.503-11.88
	c-2.932,2.317-5.62,5.783-8.042,9.814c-2.425,4.035-4.583,8.637-6.457,13.24c-3.742,9.202-6.338,18.389-7.622,22.968
	c-0.275,0.969-0.507,1.792-0.705,2.447c-1.154,0.252-2.307,0.523-3.453,0.826c0.068-0.525,0.152-1.108,0.259-1.757
	c0.677-4.352,2.665-11.338,5.444-18.928c0.397-1.092,0.816-2.19,1.25-3.303c1.52-3.939,3.235-7.957,5.071-11.789
	c0.244-0.503,0.484-1.001,0.73-1.496c2.125-4.31,4.402-8.326,6.724-11.647c-3.944,2.095-7.188,5.572-9.838,9.75
	c-0.084,0.131-0.167,0.265-0.251,0.401c-2.604,4.235-4.595,9.16-6.175,14.045c-1.797,5.543-3.053,11.074-3.853,15.627
	c-0.484,2.741-0.812,5.12-1.021,6.912c-0.138,1.119-0.232,2.039-0.304,2.738c-1.223,0.354-2.437,0.73-3.648,1.143
	c0.153-1.645,0.564-4.193,1.195-7.352c0.766-3.831,1.851-8.551,3.158-13.59c1.306-5.036,2.835-10.395,4.496-15.51
	c1.652-5.117,3.441-9.991,5.253-14.058c-2.825,3.585-5.193,8.207-7.15,13.226c-1.953,5.016-3.505,10.423-4.705,15.575
	c-1.199,5.151-2.048,10.043-2.612,14.027c-0.502,3.618-0.774,6.475-0.845,8.114c-0.953,0.339-1.888,0.694-2.819,1.065
	c0.008-0.374,0.008-1.158,0.016-1.234c0-1.515,0.07-3.123,0.162-4.809c0.156-2.685,0.411-5.484,0.768-8.356
	c0.241-1.941,0.518-3.902,0.846-5.88c0.342-2.094,0.73-4.207,1.142-6.323c0.655-3.329,1.385-6.675,2.148-10.022
	c0.16-0.709,0.328-1.422,0.486-2.134c1.029-4.379,2.095-8.717,3.107-12.914c-1.454,2.609-2.719,5.45-3.819,8.425
	c0.583-2.61,1.146-5.288,1.656-8.09c-1.919,4.075-3.533,8.15-4.866,12.28C3.448,85.544,2.4,89.724,1.621,94.006
	c-0.789,4.282-1.311,8.664-1.599,13.195c-0.282,4.525-0.332,9.202-0.16,14.076l0.018,0.576h0.016
	c-0.301,0.133-0.597,0.275-0.896,0.41v5.779c3.762,0.521,8.122,1.146,8.347,1.056c0.464-0.178,0.936-0.353,1.408-0.528
	c0.144-0.053-8.331-2.115-8.176-2.17c0.083-0.032,8.787,1.946,8.87,1.917c0.426-0.153,0.86-0.306,1.29-0.456
	c1.055-0.367-12.415-3.037-11.326-3.359c0.7-0.206,15.945,1.924,16.656,1.738c7.901-2.089,16.502-3.022,25.109-2.755
	c0.434,0.014-12.473-6.555-12.038-6.534c0.464,0.019,14.262,6.628,14.734,6.656c1.118,0.066,2.247,0.155,3.366,0.267
	c0.571,0.054-11.034-5.528-10.462-5.466c0.548,0.068,13.271,5.777,13.82,5.848c5.536,0.749,10.964,2.011,16.105,3.8
	c0.442,0.155-8.407-6.861-7.969-6.699c0.431,0.159,10.146,7.497,10.577,7.662c9.161,3.586,17.227,8.93,23.053,16.107
	c-1.22-2.004-2.601-3.934-4.098-5.799l2.403,0.588l2.987,0.729c-1.301-0.975-2.184-1.554-3.204-1.981
	c-0.511-0.213-1.056-0.388-1.706-0.555c-0.525-0.139-1.127-0.271-1.828-0.416c-0.467-0.54-0.943-1.072-1.436-1.6
	c0.137,0.002,0.278,0.001,0.416-0.007c0.541-0.034,2.109,0.163,2.9,0.188c0.289,0.009,0.929,0.106,1.219,0.123
	c1.097,0.062,3.319,0.458,3.975,0.63c-1.729-1.131-3.259-1.671-4.766-1.99c-0.664-0.137-1.33-0.247-2.026-0.317
	c-0.853-0.082-1.702-0.109-2.563-0.168c-0.064-0.004-0.125-0.005-0.185-0.01c-0.146,0.009-0.229,0.085-0.29,0.184
	c-0.525-0.532-1.059-1.056-1.607-1.572c0.274-0.01,0.621-0.023,1.043-0.051C85.075,133.013,87.312,133.03,89.508,133.155z
	 M1.902,108.83c-0.038,0.676-0.068,1.346-0.099,2.003c-0.156,3.509-0.175,6.587-0.045,8.915l0.099,1.245
	c-0.274,0.116-0.552,0.226-0.823,0.343v-0.102c-0.167-4.823,0.07-9.305,0.572-13.603c0.251-2.098,0.563-4.151,0.918-6.181
	C2.245,103.964,2.032,106.437,1.902,108.83z M20.104,115.707c0.008-0.028,0.016-0.051,0.023-0.079l0.149,0.047
	C20.219,115.684,20.163,115.694,20.104,115.707z M52.298,116.765c0.384-0.401,0.812-0.849,1.272-1.334
	c0.104-0.104,0.202-0.213,0.308-0.322c1.531-1.597,3.8-3.516,6.45-5.518c0.974-0.738,2.002-1.488,3.062-2.234
	c-3.291,2.542-6.13,5.134-8.149,7.027c-0.977,0.923-1.94,1.891-2.6,2.464C52.523,116.819,52.413,116.792,52.298,116.765z"/>
<linearGradient id="SVGID_2_" gradientUnits="userSpaceOnUse" x1="125.46" y1="67.769" x2="-9.3253" y2="41.45">
	<stop  offset="0" style="stop-color:#9DBA46"/>
	<stop  offset="0.8061" style="stop-color:#5C7E41"/>
</linearGradient>
<path fill="url(#SVGID_2_)" d="M2.492,73.885C1.444,68.666,0.174,63.633-1,59.67v20.104c1.189,5.227,2.738,11.35,4.329,17.387
	c3.393,11.462,5.349,20.497,5.57,20.445c0.236-0.051-1.138-8.942-2.68-20.397C5.077,88.736,3.723,80.01,2.492,73.885z
	 M16.347,72.021C12.425,60.041,7.461,49.173,6.402,49.52c-1.042,0.344,1.363,12.052,5.28,24.033
	c2.02,6.17,5.189,14.531,8.419,22.734c4.972,11.592,8.147,20.783,8.375,20.709c0.243-0.083-2.312-9.217-5.346-21.015
	C20.89,87.251,18.392,78.292,16.347,72.021z M139.223,1.962c9.104-0.715,16.143-0.752,16.158-0.924
	c-0.004-0.175-5.361-0.495-12.68-1.038h-38.117c-0.423,0.131-0.655,0.267-0.655,0.4c-0.015,0.826,8.575,1.917,17.724,2.033
	C126.354,2.491,132.842,2.273,139.223,1.962z M115.13,8.152C104.789,6.882,94.922,6.805,94.8,7.724
	c-0.119,0.932,9.487,3.262,19.82,4.528c5.319,0.661,12.701,1.217,19.962,1.671c10.405,0.341,18.4,1.184,18.427,0.98
	c0.026-0.213-7.71-1.521-17.593-3.4C128.105,10.108,120.529,8.818,115.13,8.152z M111.019,13.036
	c-9.216-1.76-18.123-2.547-20.403-2.098C95.781,6.996,100.137,3.261,103.609,0h-2.167c-0.772,0.702-1.626,1.448-2.485,2.195
	c0.19-0.559,0.392-1.276,0.598-2.195h-2.082c0.145,1.486,0.332,2.524,0.555,3.002c-1.188,1.017-2.459,2.067-3.795,3.149
	C94.64,5.055,95.098,2.88,95.512,0h-3.058c0.229,3.562,0.595,6.067,1.021,6.749c-1.199,0.958-2.453,1.936-3.773,2.934
	C90.192,8.355,90.633,4.742,90.877,0h-3.662c0.549,5.449,1.287,9.419,1.904,10.119c-1.104,0.824-2.217,1.654-3.396,2.502
	c0.436-1.499,0.381-6.405-0.16-12.621h-4.184c1.42,6.942,2.988,12.223,3.818,12.983c-1.177,0.839-2.36,1.681-3.624,2.533
	C82.018,14.18,81.108,7.765,79.312,0h-4.637c2.703,8.566,5.581,15.36,6.579,15.734c-1.311,0.884-2.688,1.778-4.09,2.674
	C77.86,17.617,75.908,9.44,72.641,0h-5.154c4.054,10.105,8.497,18.533,9.556,18.487c-1.447,0.927-2.965,1.859-4.508,2.791
	c0.678-1.043-2.353-10.84-6.823-21.278h-5.459c0,0.009,0.008,0.021,0.013,0.031c5.015,11.297,10.918,21.382,12.118,21.339
	c-1.507,0.91-3.072,1.82-4.675,2.729c0.982-0.566-3.051-11.891-8.639-23.273C58.934,0.558,58.797,0.277,58.661,0H53.08
	c0.502,1.07,0.989,2.091,1.454,3.044c5.585,11.385,12.091,21.506,13.155,21.068c-4.436,2.519-9.21,5.015-14.334,7.451
	c0.621-0.783-1.341-7.659-4.614-16.085c4.295,8.146,8.264,14.202,9.076,13.823C58.771,28.852,55.672,19.257,51,8.712
	c5.307,10.147,10.848,18.488,11.779,18.012c1.037-0.512-3.132-12.067-8.889-23.664C53.414,2.097,52.884,1.07,52.333,0H36.681
	c0.316,0.792,0.629,1.579,0.941,2.341C37.255,1.576,36.883,0.792,36.503,0h-9.773c0.396,1.108,0.792,2.202,1.183,3.269
	C27.426,2.199,26.924,1.106,26.406,0h-8.773c0.538,1.662,1.074,3.305,1.604,4.9c-0.674-1.602-1.375-3.245-2.089-4.9h-4.173
	c1.331,4.314,2.671,8.514,3.936,12.279C15.44,8.485,13.728,4.274,11.931,0H7.964c1.827,6.241,3.692,12.333,5.378,17.313
	C11.473,12.288,8.983,6.157,6.372,0H2.709c1.204,4.125,2.429,8.229,3.616,12.033C4.796,8.203,3.085,4.09,1.334,0H-1v3.852
	c2.103,7.152,4.238,14.066,6.092,19.259c3.964,11.171,8.849,21.322,10.424,22.525c-1.462,0.411-2.946,0.812-4.447,1.203
	c0.492-1.784-2.079-12.508-5.969-23.448C3.562,19.072,1.384,13.571-1,7.841v13.053c0.489,1.476,0.967,2.875,1.424,4.159
	C4.277,35.916,9.029,45.79,10.575,46.975c-1.455,0.375-2.939,0.732-4.428,1.091c0.525-1.614-1.976-12.096-5.775-22.782
	C-0.04,24.124-0.5,22.876-1,21.56v13.576c2.917,7.049,5.697,12.383,6.735,13.022c-1.679,0.4-3.369,0.798-5.089,1.17
	C1.193,48.869,0.509,44.332-1,38.22v9.177c0.679,1.218,1.193,1.899,1.493,1.966C-0.01,49.472-0.488,49.6-1,49.707v1.457
	c0.604-0.124,1.174-0.273,1.775-0.401C0.014,51.939,1.672,62.92,4.678,74.249c1.619,6.097,4.238,14.413,6.91,22.554
	c4.181,11.522,6.754,20.629,6.975,20.57c0.24-0.063-1.739-9.086-4.027-20.7c-1.683-8.602-3.599-17.438-5.25-23.641
	C6.304,61.756,2.352,51.438,1.072,50.695c3.418-0.732,6.754-1.515,10.006-2.347c-0.968,0.607,2.032,12.329,6.585,24.281
	c2.357,6.22,6.007,14.615,9.708,22.849c5.635,11.604,9.336,20.861,9.557,20.769c0.245-0.092-2.809-9.316-6.48-21.229
	c-2.717-8.823-5.692-17.866-8.095-24.179c-4.53-11.9-10.043-22.626-11.2-22.51c1.561-0.4,3.091-0.816,4.615-1.237
	c-0.328,1.923,3.312,12.916,8.348,24.012c2.785,6.188,7.025,14.491,11.312,22.635c6.457,11.446,10.798,20.631,11.022,20.529
	c0.251-0.117-3.446-9.303-7.917-21.185c-3.327-8.809-6.917-17.815-9.76-24.079C23.828,58.071,18.09,48.214,16.32,46.947
	c1.421-0.396,2.833-0.796,4.223-1.208c-0.911,0.776,3.798,12.464,10.119,24.157c3.289,6.085,8.209,14.263,13.158,22.239
	c7.413,11.21,12.506,20.258,12.716,20.145c0.251-0.14-4.172-9.238-9.595-21.033c-4.016-8.73-8.33-17.655-11.672-23.836
	c-6.267-11.595-13.372-21.846-14.628-21.705c1.675-0.498,3.319-1.009,4.949-1.529C24.772,45.069,30,56.403,36.822,67.684
	c3.556,5.891,8.855,13.78,14.148,21.463c7.903,10.783,13.393,19.527,13.606,19.396c0.236-0.135-4.595-8.971-10.545-20.424
	c-4.417-8.485-9.138-17.15-12.763-23.134C34.576,53.91,27.125,44.168,25.748,44.131c1.686-0.543,3.331-1.099,4.968-1.664
	c-0.002,2.039,5.467,12.584,12.351,23.021c3.838,5.823,9.48,13.584,15.145,21.159c8.406,10.587,14.299,19.208,14.505,19.062
	c0.236-0.157-4.996-8.887-11.459-20.226c-4.791-8.41-9.907-16.98-13.798-22.883C40.751,52.417,33.418,43.438,31.32,42.255
	c1.33-0.465,2.678-0.919,3.972-1.398c0.251,2.201,6.29,12.272,13.69,22.16c4.181,5.577,10.288,12.981,16.395,20.201
	c9.031,10.046,15.427,18.301,15.628,18.153c0.229-0.172-5.524-8.577-12.659-19.511c-5.292-8.096-10.907-16.34-15.153-22
	c-7.119-9.508-14.772-17.872-17.158-19.262c1.268-0.469,2.462-0.962,3.695-1.445c0.527,2.259,7.246,11.939,15.271,21.42
	c4.558,5.385,11.148,12.52,17.708,19.468c9.67,9.673,16.622,17.64,16.805,17.483c0.202-0.169-6.131-8.307-14.042-18.888
	c-5.855-7.846-12.051-15.805-16.677-21.279C51.1,48.25,42.99,40.267,40.478,38.858c1.369-0.544,2.778-1.073,4.111-1.629
	c0.524,2.123,7.69,11.461,16.234,20.574c4.804,5.137,11.734,11.914,18.647,18.5c10.127,9.133,17.445,16.701,17.621,16.54
	c0.197-0.188-6.51-7.966-14.914-18.121c-6.232-7.519-12.796-15.156-17.669-20.369c-8.111-8.654-16.57-16.14-19.188-17.445
	c1.27-0.534,2.489-1.084,3.723-1.63c0.568,2.013,8.125,10.849,17.064,19.394c4.995,4.792,12.167,11.082,19.314,17.191
	c10.451,8.435,18.059,15.496,18.229,15.317c0.175-0.181-6.841-7.486-15.649-17.021c-6.517-7.061-13.378-14.214-18.459-19.082
	c-8.415-8.059-17.095-14.954-19.768-16.119c1.432-0.638,2.836-1.279,4.21-1.931c0.843,2.134,8.647,10.437,17.735,18.373
	c5.174,4.53,12.56,10.428,19.915,16.147c10.732,7.888,18.592,14.527,18.752,14.337c0.168-0.183-7.105-7.091-16.25-16.157
	C87.36,59.036,80.248,52.25,75.001,47.657c-8.62-7.526-17.428-13.894-20.221-15.01c1.273-0.605,2.555-1.208,3.782-1.825
	c1.264,2.271,9.237,9.797,18.343,16.862c5.32,4.13,12.89,9.47,20.416,14.635c10.965,7.062,19.029,13.117,19.181,12.917
	c0.163-0.208-7.349-6.548-16.797-14.89c-7.006-6.174-14.354-12.408-19.745-16.59c-8.605-6.675-17.362-12.256-20.43-13.41
	c1.4-0.708,2.725-1.429,4.073-2.146c0.61,1.784,8.917,9.292,18.55,16.277c5.345,3.88,12.951,8.866,20.508,13.67
	c11.015,6.554,19.124,12.226,19.27,12.02c0.16-0.213-7.385-6.213-16.914-14.127c-7.053-5.851-14.454-11.745-19.875-15.68
	c-8.95-6.49-18.054-11.8-20.822-12.541c1.4-0.753,2.755-1.505,4.094-2.265c0.855,1.826,9.247,8.695,18.788,14.967
	c5.368,3.522,12.978,8.017,20.528,12.35c10.98,5.871,19.117,11.001,19.242,10.817c0.153-0.223-7.451-5.713-17.064-12.968
	c-7.104-5.37-14.539-10.753-19.992-14.333c-8.98-5.91-18.061-10.662-20.772-11.251c1.428-0.822,2.844-1.638,4.203-2.459
	c1.383,1.913,9.803,7.794,19.238,13.052c5.476,3.051,13.196,6.892,20.861,10.573c11.097,4.929,19.37,9.359,19.479,9.156
	c0.119-0.225-7.65-5.026-17.512-11.403c-7.295-4.719-14.925-9.435-20.468-12.538c-8.829-4.915-17.651-8.781-20.689-9.402
	c1.272-0.779,2.559-1.557,3.762-2.332c0.959,1.528,9.784,6.775,19.607,11.288c5.481,2.512,13.188,5.628,20.818,8.576
	c11.031,3.91,19.316,7.537,19.408,7.329c0.096-0.221-7.729-4.243-17.689-9.628c-7.358-3.989-15.041-7.952-20.607-10.499
	c-9.141-4.204-18.207-7.333-20.854-7.52c1.265-0.822,2.492-1.641,3.686-2.456c0.564,1.277,9.831,5.929,20.072,9.744
	c5.547,2.065,13.326,4.538,21.008,6.886c11.073,3.017,19.449,5.956,19.517,5.745c0.091-0.212-7.872-3.586-18-8.132
	c-7.496-3.37-15.298-6.688-20.94-8.778c-9.403-3.5-18.67-5.93-21.092-5.841c1.127-0.773,2.178-1.528,3.24-2.292
	c0.796,1.223,10.108,4.92,20.273,7.74c5.551,1.54,13.298,3.294,20.936,4.918c10.996,2.008,19.361,4.162,19.413,3.953
	c0.078-0.21-7.933-2.827-18.138-6.384c-7.554-2.642-15.381-5.21-21.026-6.766c-9.278-2.569-18.329-4.142-20.829-3.91
	c1.129-0.816,2.215-1.619,3.273-2.423c0.488,1.057,9.906,3.956,20.137,5.901c5.451,1.029,13.033,2.107,20.511,3.059
	c10.735,1.059,18.937,2.466,18.981,2.263c0.039-0.217-7.866-2.081-17.947-4.696C124.311,15.922,116.564,14.081,111.019,13.036z
	 M15.981,45.513c0.445-1.191-0.876-7.56-3.244-15.437c3.354,8.136,6.567,14.237,7.462,14.164
	C18.791,44.663,17.42,45.105,15.981,45.513z M20.299,44.207c0.86-0.719-1.394-10.718-5.078-21.619
	c3.822,10.258,8.138,19.104,9.632,20.248C23.372,43.311,21.814,43.751,20.299,44.207z M25.31,42.691
	c0.556-1.417-1.508-10.541-4.901-20.756c4.002,10.202,8.35,18.685,9.621,19.157C28.473,41.632,26.915,42.171,25.31,42.691z
	 M30.334,40.985c0.507-1.077-0.967-7.776-3.571-16.027c3.586,8.232,7.009,14.416,7.972,14.469
	C33.305,39.963,31.808,40.47,30.334,40.985z M34.881,39.379c0.643-0.646-0.697-6.764-3.18-14.588
	c3.617,7.583,6.903,13.068,7.695,12.804C37.896,38.189,36.433,38.801,34.881,39.379z M39.414,37.587
	c0.797-0.386-0.909-7.277-3.917-15.825c3.694,7.868,7.151,13.785,8.22,14.125C42.328,36.467,40.847,37.019,39.414,37.587z
	 M43.991,35.765c0.522-1.03-1.283-7.966-4.329-16.422c4.021,8.211,7.805,14.397,8.806,14.468
	C46.996,34.467,45.518,35.125,43.991,35.765z M48.625,33.741c0.718-0.821-1.741-9.353-5.651-19.168
	c4.547,9.492,9.145,17.06,10.223,17.063C51.701,32.346,50.182,33.047,48.625,33.741z M118.367,3.115
	c-9.789-0.412-19.066,0.251-19.105,1.125c-0.046,0.877,9.141,2.344,18.938,2.768c5.045,0.215,12,0.194,18.861,0.066
	c9.791-0.452,17.36-0.251,17.376-0.439c0-0.208-7.364-0.852-16.775-1.888C130.697,3.986,123.491,3.345,118.367,3.115z"/>
<linearGradient id="SVGID_3_" gradientUnits="userSpaceOnUse" x1="95.3477" y1="182.0049" x2="-0.8921" y2="200.632">
	<stop  offset="0" style="stop-color:#ADCB55"/>
	<stop  offset="0.6165" style="stop-color:#6A8D54"/>
</linearGradient>
<path fill="url(#SVGID_3_)" d="M19.662,189.707c0.92,0.039,1.845-9.027,2.572-19.439c0.359-5.438,0.812-13.322,1.63-21.292
	c1.089-10.748,2.925-19.541,2.75-19.576c-0.137-0.05-2.353,8.868-4.836,19.717c-1.599,7.66-2.764,15.244-3.209,20.664
	C17.628,180.352,18.748,189.68,19.662,189.707z M0,267.279c4.373,0.777,7.25,1.105,7.296,1.044c0.068-0.091-2.916-0.608-7.296-1.781
	V267.279z M23.393,187.523c0.905,0.107,2.474-8.623,3.74-18.637c0.646-5.227,1.456-12.818,2.542-20.467
	c1.438-10.324,3.4-18.718,3.236-18.762c-0.137-0.067-2.482,8.404-5.33,18.723c-1.846,7.301-3.335,14.551-4.063,19.761
	C22.053,178.311,22.494,187.439,23.393,187.523z M0,268.72c2.644,0.335,4.277,0.473,4.307,0.427
	c0.044-0.062-1.625-0.328-4.307-0.893V268.72z M0,270.333c0.96,0.069,1.516,0.092,1.531,0.069c0.023-0.039-0.541-0.131-1.531-0.29
	V270.333z M43.67,164.815c-3.235,7.495-5.208,14.738-4.484,15.015c0.738,0.285,4.408-6.179,7.538-13.578
	c1.637-3.863,3.739-9.488,5.787-15.086c2.741-7.556,5.208-13.545,5.063-13.627c-0.133-0.084-2.974,5.85-6.991,13.064
	C47.912,155.751,45.33,160.969,43.67,164.815z M26.834,185.775c0.875,0.162,3.152-8.09,5.018-17.553
	c0.963-4.944,2.186-12.107,3.571-19.32c1.851-9.729,3.967-17.591,3.803-17.648c-0.132-0.08-2.641,7.812-5.89,17.433
	c-2.117,6.805-3.979,13.607-5.001,18.526C26.283,176.827,25.963,185.623,26.834,185.775z M0,265.536
	c5.827,1.251,9.877,1.798,9.938,1.722c0.094-0.1-4.154-0.898-9.938-2.757V265.536z M48.421,164.094
	c-3.167,6.829-5.197,13.461-4.511,13.73c0.677,0.276,4.282-5.615,7.374-12.346c1.614-3.529,3.686-8.645,5.682-13.742
	c2.679-6.861,5.032-12.275,4.896-12.354c-0.122-0.078-2.84,5.275-6.724,11.816C52.556,155.857,50.048,160.602,48.421,164.094z
	 M38.427,165.309c-2.904,8.334-4.374,16.24-3.582,16.486c0.795,0.253,4.077-6.933,6.836-15.16c1.449-4.293,3.28-10.539,5.126-16.77
	c2.49-8.415,4.842-15.14,4.687-15.21c-0.141-0.086-2.879,6.591-6.697,14.736C42.284,155.178,39.898,161.027,38.427,165.309z
	 M33.132,166.469c-2.555,8.934-3.552,17.284-2.719,17.492c0.83,0.211,3.717-7.475,6.107-16.286
	c1.249-4.599,2.836-11.28,4.488-17.972c2.221-9.043,4.49-16.289,4.321-16.356c-0.136-0.088-2.782,7.153-6.365,15.98
	C36.605,155.589,34.43,161.879,33.132,166.469z M8.125,173.277c0.149,11.562,2.765,21.364,3.717,21.254
	c0.958-0.083,0.475-9.941,0.099-21.344c-0.229-5.934-0.488-14.551-0.129-23.29c0.445-11.8,2.198-21.546,2.014-21.541
	c-0.133-0.024-2.272,9.924-4.147,22.092C8.514,158.988,8.009,167.359,8.125,173.277z M79.732,169.757
	c3.639-0.78,8.628-2.054,13.592-3.423c7.014-2.055,12.648-3.611,12.618-3.674c-0.032-0.078-5.628,1.286-12.647,2.706
	c-5.209,1.054-10.479,2.067-14.156,2.849c-7.024,1.493-13.333,3.135-13.22,3.506C66.034,172.103,72.667,171.307,79.732,169.757z
	 M61.831,185.265c5.064,1.01,12.327,1.853,19.805,2.119c10.698,0.231,19.403-0.212,19.425-0.314
	c0.046-0.145-8.36,0.009-18.412-1.261c-7.451-0.91-14.802-2.372-19.888-3.455c-8.525-1.757-16.158-3.566-18.176-3.537
	c7.447-3.133,14.224-5.344,19.668-6.276c-0.518,0.117-0.822,0.22-0.815,0.304c0.011,0.059,0.183,0.107,0.477,0.146
	c-2.236,0.222-3.621,0.449-3.606,0.666c0.022,0.504,7.47,1.092,15.717,0.591c4.221-0.233,10.118-0.857,16.04-1.707
	c8.402-1.327,15.183-2.461,15.156-2.542c-0.016-0.1-6.688,0.818-14.924,1.358c-3.298,0.218-6.586,0.392-9.603,0.532
	c3.183-0.434,6.788-1.001,10.405-1.65c7.779-1.488,14.038-2.723,14.016-2.783c-0.023-0.075-6.184,0.959-13.836,1.803
	c-5.681,0.626-11.399,1.138-15.396,1.537c-4.763,0.478-9.229,0.996-11.902,1.42l-0.062-0.494l-0.049-0.395
	c1.146-0.064,6.704-1.893,12.468-4.275c3.264-1.362,7.684-3.363,12.033-5.396c6.129-3.004,11.07-5.185,11.025-5.247
	c-0.062-0.072-5.012,1.903-11.32,4.262c-4.678,1.75-9.434,3.555-12.743,4.91c-2.839,1.166-5.531,2.369-7.621,3.373
	c1.841-1.15,4.004-2.615,6.13-4.212c2.648-1.987,6.113-4.861,9.488-7.732c4.648-4.216,8.551-7.251,8.443-7.329
	c-0.094-0.09-4.134,2.667-9.396,6.093c-3.891,2.539-7.835,5.218-10.515,7.234c-0.495,0.366-0.975,0.741-1.451,1.11
	c0.076-0.075,0.147-0.149,0.225-0.224c2.307-2.308,5.361-5.688,8.235-9.032c3.896-4.514,7.021-7.973,6.91-8.061
	c-0.107-0.084-3.584,3.289-8.451,7.327c-3.306,2.912-6.614,5.914-8.88,8.2c-4.401,4.42-7.934,9.004-7.455,9.373
	c-0.73,0.143-1.508,0.327-2.285,0.512c1.542-1.18,4.707-4.48,7.646-8.205c1.987-2.528,4.592-6.215,7.055-9.854
	c3.308-4.898,6.027-8.709,5.905-8.783c-0.113-0.076-3.152,3.645-7.493,8.146c-2.909,3.237-5.816,6.555-7.79,9.056
	c-3.464,4.4-6.167,8.824-6.259,9.859c-0.892,0.226-1.812,0.487-2.749,0.764c1.446-1.273,4.492-5.08,7.257-9.375
	c1.828-2.832,4.209-6.969,6.449-11.055c3.031-5.508,5.551-9.802,5.416-9.877c-0.115-0.078-2.976,4.137-7.082,9.287
	c-2.75,3.682-5.476,7.445-7.299,10.256c-3.24,5.016-5.646,9.973-5.586,11.006c-1.16,0.352-2.352,0.745-3.574,1.164
	c1.263-1.029,4.41-5.324,7.222-10.184c1.747-2.996,3.987-7.361,6.122-11.678c2.871-5.84,5.284-10.395,5.162-10.47
	c-0.122-0.071-2.877,4.413-6.86,9.887c-2.651,3.925-5.269,7.914-7.006,10.882c-3.274,5.636-5.597,11.162-5.162,11.739
	c-1.302,0.454-2.627,0.946-3.983,1.47c0.976-0.459,4.352-5.489,7.318-11.27c1.683-3.256,3.83-7.98,5.882-12.659
	c2.768-6.331,5.136-11.294,4.999-11.382c-0.115-0.078-2.845,4.84-6.754,10.812c-2.604,4.27-5.163,8.629-6.842,11.861
	c-3.258,6.26-5.447,12.414-4.815,12.717c-9.998,3.889-21.288,9.548-31.928,15.757c0.883-0.485,1.089-9.739,1.249-20.456
	c0.054-5.725,0.137-14.045,0.716-22.462c0.745-11.374,2.543-20.707,2.364-20.737c-0.132-0.037-2.314,9.476-4.485,21.07
	c-1.382,8.176-2.212,16.224-2.357,21.935c-0.392,10.983,1.448,20.482,2.403,20.716c-2.562,1.498-5.094,3.022-7.55,4.568
	c0.556-1.824-0.274-11.115-0.905-21.76c-0.408-6.135-0.869-15.059-0.609-24.117c0.285-12.211,2.112-22.323,1.922-22.309
	c-0.134-0.021-2.342,10.337-4.082,23.01c-1.084,8.893-1.404,17.594-1.108,23.708c0.435,11.261,3.224,20.794,4.36,21.734
	c-1.079,0.677-2.13,1.356-3.173,2.037c0.229-2.721-0.829-11.608-1.621-21.702c-0.542-6.26-1.15-15.371-0.953-24.627
	c0.207-12.481,2.071-22.841,1.888-22.812c-0.125-0.01-2.368,10.609-3.973,23.609L0,153.96v30.55
	c1.081,7.631,2.971,13.493,3.976,14.982c-0.929,0.604-1.821,1.213-2.72,1.819c0.016-1.759-0.547-5.72-1.256-10.827v10.523
	c0.183,0.363,0.34,0.605,0.489,0.82c-0.161,0.111-0.328,0.219-0.489,0.326v1.252c3.868-2.658,8.09-5.316,12.424-7.935
	c-0.658,0.68,4.778,9.599,13.299,16.396c4.366,3.587,11.09,7.789,18.37,10.867c10.62,4.271,19.319,5.963,19.455,5.871
	c0.21-0.167-7.854-2.153-16.871-7.188c-6.704-3.678-13.126-8.448-17.566-12.07c-8.543-6.77-15.8-14.314-16.646-13.905
	c1.269-0.761,2.498-1.539,3.784-2.288c-0.258,1.11,5.387,9.328,13.935,15.573c4.512,3.39,11.415,7.323,18.847,10.157
	c10.82,3.912,19.688,5.374,19.82,5.275c0.199-0.169-8.051-1.913-17.333-6.643c-6.898-3.439-13.528-7.958-18.104-11.394
	c-8.482-6.174-15.701-12.989-16.961-13.093c1.223-0.709,2.449-1.407,3.686-2.1c0.076,1.354,6.053,8.889,14.753,14.521
	c4.679,3.133,11.804,6.708,19.413,9.215c11.069,3.447,20.125,4.615,20.248,4.516c0.178-0.176-8.288-1.624-17.906-5.938
	c-7.142-3.134-14.026-7.314-18.777-10.502c-8.464-5.492-15.739-11.545-17.384-12.012c1.111-0.619,2.22-1.228,3.336-1.834
	c0.482,1.504,6.814,7.979,15.541,12.682c4.828,2.685,12.051,5.678,19.722,7.708c11.095,2.76,20.186,3.603,20.273,3.5
	c0.148-0.162-8.406-1.286-18.225-4.968c-7.287-2.679-14.345-6.291-19.234-9.036c-8.223-4.489-15.449-9.417-17.552-10.172
	c1.02-0.55,2.037-1.09,3.062-1.628c0.769,1.48,7.819,7.043,17.067,10.795c5.17,2.174,12.788,4.469,20.791,5.885
	c11.551,1.864,21.001,2.146,21.062,2.045c0.13-0.172-8.874-0.753-19.312-3.633c-7.757-2.09-15.303-5.049-20.507-7.295
	c-8.601-3.604-16.161-7.516-18.481-8.121c1.009-0.525,2.015-1.048,3.012-1.553c0.624,1.2,8.242,5.891,17.936,8.768
	c5.284,1.625,12.986,3.227,20.99,4.07c11.505,1.035,20.919,0.917,20.962,0.808c0.077-0.161-8.943-0.347-19.569-2.462
	c-7.873-1.53-15.571-3.799-20.886-5.501c-8.779-2.741-16.531-5.659-18.831-5.978c1.188-0.598,2.375-1.188,3.556-1.758
	c0.434,1.053,8.467,5.285,18.51,7.646c5.385,1.326,13.174,2.525,21.215,3.025c11.535,0.551,20.962,0.148,20.995,0.041
	c0.062-0.16-9.025-0.062-19.785-1.725c-7.98-1.188-15.804-3.062-21.215-4.469c-8.946-2.254-16.864-4.644-19.142-4.791
	c1.31-0.625,2.616-1.239,3.906-1.824c0.144,0.901,8.235,4.852,18.229,6.959c5.239,1.161,12.8,2.169,20.59,2.541
	c11.179,0.36,20.281-0.074,20.308-0.18c0.046-0.156-8.732-0.021-19.192-1.459c-7.747-1.044-15.374-2.697-20.65-3.932
	c-8.821-2.012-16.687-4.115-18.789-4.15c1.326-0.6,2.635-1.178,3.929-1.726C44.143,179.816,52.107,183.423,61.831,185.265z
	 M65.637,171.264c-0.137,0.019-0.285,0.051-0.425,0.071c0.13-0.032,0.277-0.075,0.464-0.153
	C65.646,171.217,65.646,171.237,65.637,171.264z M65.547,170.22c-0.526,0.599-0.786,1.005-0.66,1.118
	c0.038,0.032,0.126,0.027,0.226,0.012c-0.563,0.082-1.136,0.179-1.729,0.285C63.826,171.453,64.58,170.961,65.547,170.22z
	 M89.434,177.463c8.992-0.684,16.258-1.436,16.25-1.525c0.008-0.129-7.098,0.364-15.756,0.104c-6.418-0.18-12.827-0.63-17.284-0.937
	c-8.544-0.541-16.197-0.936-16.272-0.311c-0.057,0.42,3.469,1.4,8.475,2.111c-6.846-0.889-12.229-1.529-12.354-1
	c-0.167,0.65,7.481,3.199,16.478,4.243c4.603,0.569,11.143,0.917,17.797,0.853c9.519-0.25,17.209-0.791,17.209-0.883
	c0.035-0.143-7.446,0.146-16.492-0.57c-6.709-0.518-13.371-1.405-18.012-2.037c-0.979-0.129-1.946-0.256-2.891-0.379
	c1.836,0.221,3.824,0.399,5.876,0.506C76.886,177.885,83.121,177.843,89.434,177.463z M0,263.488
	c7.261,1.889,12.576,2.695,12.656,2.627c0.115-0.121-5.536-1.28-12.656-4.028V263.488z M66.384,179.912
	c-9.449-1.596-17.849-3.207-18.04-2.514c-0.223,0.686,7.76,3.852,17.317,5.322c4.889,0.782,11.878,1.379,19.02,1.475
	c10.227-0.029,18.534-0.541,18.534-0.643c0.038-0.137-8.011,0.098-17.657-0.896C78.396,181.949,71.311,180.773,66.384,179.912z
	 M0,253.559v2.62c0.756,0.258,1.512,0.518,2.277,0.753c10.599,3.16,19.268,4.333,19.372,4.242c0.148-0.161-7.987-1.622-17.276-5.635
	C2.895,254.915,1.436,254.248,0,253.559z M0,257.68v2.07c9.869,2.787,17.781,3.876,17.868,3.776
	c0.149-0.153-7.77-1.575-16.854-5.422C0.67,257.968,0.336,257.823,0,257.68z M60.438,231.933c0.221-0.157-7.976-2.146-17.133-7.286
	c-6.796-3.742-13.302-8.619-17.792-12.334c-8.722-6.989-16.116-14.852-16.865-14.281c-0.701,0.493,3.689,8.072,10.935,14.71
	c-7.802-6.308-14.022-12.587-14.685-12.052c-0.595,0.439,2.596,5.938,8.14,11.6c-6.324-5.214-11.035-9.692-11.598-9.215
	c-0.654,0.501,3.556,7.318,10.512,13.568C6.771,212.545,2.399,208.61,0,206.766v2.859c1.516,2.177,3.842,5.008,6.782,7.859
	c-2.574-2.03-4.885-3.949-6.782-5.504v4.207c1.005,1.123,2.129,2.296,3.374,3.48c-1.188-0.938-2.318-1.847-3.374-2.705v27.811
	c3.832,1.904,8.21,3.736,12.773,5.199c11.541,3.488,21.037,4.584,21.146,4.484c0.179-0.176-8.715-1.583-18.773-5.977
	c-4.245-1.82-8.392-3.994-12.096-6.137c3.728,1.842,7.962,3.607,12.363,5.023c11.501,3.515,20.971,4.638,21.099,4.537
	c0.172-0.176-8.695-1.604-18.73-6.02c-6.458-2.789-12.702-6.406-17.454-9.463c4.829,2.921,11.37,6.027,18.328,8.258
	c11.703,3.561,21.337,4.652,21.45,4.553c0.184-0.182-8.839-1.59-19.051-6.067c-5.43-2.337-10.705-5.262-15.106-7.965
	c4.38,2.467,9.739,4.935,15.389,6.815c11.578,3.67,21.129,4.855,21.24,4.751c0.194-0.176-8.729-1.673-18.819-6.235
	c-3.568-1.592-7.066-3.438-10.288-5.304c3.313,1.632,6.953,3.187,10.725,4.473c11.587,3.762,21.128,4.979,21.256,4.878
	c0.187-0.188-8.741-1.713-18.801-6.363c-1.729-0.783-3.437-1.629-5.107-2.508c1.59,0.691,3.22,1.352,4.887,1.953
	c11.392,3.936,20.78,5.301,20.906,5.191c0.19-0.174-8.551-1.841-18.393-6.639c-3.991-1.906-7.882-4.158-11.383-6.381
	c3.533,1.927,7.514,3.785,11.668,5.308c11.387,3.96,20.769,5.337,20.898,5.246c0.198-0.19-8.55-1.864-18.365-6.704
	c-2.967-1.429-5.876-3.047-8.613-4.703c2.84,1.47,5.894,2.863,9.054,4.051c11.337,4.086,20.673,5.521,20.802,5.414
	c0.207-0.174-8.48-1.914-18.228-6.845c-4.836-2.392-9.522-5.308-13.531-8.064c4.013,2.476,8.803,4.935,13.844,6.885
	c11.216,4.119,20.444,5.606,20.562,5.511c0.208-0.173-8.373-1.966-17.981-6.928c-2.651-1.34-5.253-2.836-7.73-4.378
	c2.514,1.332,5.187,2.601,7.939,3.715c11.049,4.215,20.121,5.778,20.258,5.685c0.213-0.172-8.208-2.036-17.635-7.078
	c-4.179-2.186-8.247-4.777-11.829-7.297c3.559,2.273,7.669,4.5,11.997,6.338C51.452,230.334,60.296,232.041,60.438,231.933z
	 M0,245.244v3.73c2.837,1.279,5.887,2.483,9.032,3.512c11.193,3.456,20.388,4.627,20.499,4.53c0.174-0.17-8.433-1.646-18.192-5.994
	C7.372,249.298,3.492,247.263,0,245.244z M0,249.76v3.175c1.737,0.708,3.526,1.369,5.346,1.98
	c10.81,3.426,19.677,4.674,19.787,4.583c0.171-0.175-8.136-1.706-17.555-5.98C4.989,252.363,2.43,251.078,0,249.76z"/>
</svg>
