<?xml version="1.0" encoding="utf-8"?>
<!-- Generator: Adobe Illustrator 16.0.4, SVG Export Plug-In . SVG Version: 6.00 Build 0)  -->
<!DOCTYPE svg PUBLIC "-//W3C//DTD SVG 1.1//EN" "http://www.w3.org/Graphics/SVG/1.1/DTD/svg11.dtd">
<svg version="1.1" id="Layer_1" xmlns="http://www.w3.org/2000/svg" xmlns:xlink="http://www.w3.org/1999/xlink" x="0px" y="0px"
	 width="151.606px" height="281.758px" viewBox="0 0 151.606 281.758" enable-background="new 0 0 151.606 281.758"
	 xml:space="preserve">
<g>
	<linearGradient id="SVGID_1_" gradientUnits="userSpaceOnUse" x1="38.9824" y1="111.9468" x2="146.634" y2="170.2582">
		<stop  offset="0" style="stop-color:#9DBA46"/>
		<stop  offset="1" style="stop-color:#5C7E41"/>
	</linearGradient>
	<path fill="url(#SVGID_1_)" d="M72.718,122.36c-9.914,1.297-17.666,2.149-17.643,2.362c0.008,0.192,7.996-0.172,18.33,0.082
		c7.229-0.035,14.572-0.159,19.9-0.501c10.326-0.68,19.982-2.433,19.912-3.369c-0.039-0.749-6.607-1.214-14.656-0.997
		c5.879-0.251,10.213-0.85,10.223-1.447c0.02-0.879-9.242-2.149-19.072-2.365c-5.156-0.104-12.426,0.065-19.463,0.382
		c-9.504,0.419-16.906,0.593-16.906,0.796c-0.01,0.187,7.58,0.486,17.361,1.574c6.869,0.565,13.844,1.054,18.918,1.152
		c2.32,0.052,4.609,0.04,6.752-0.017c-1.098,0.043-2.207,0.103-3.328,0.173C87.634,120.549,80.05,121.396,72.718,122.36z
		 M96.794,128.621c11.02-1.248,21.268-3.623,21.154-4.606c-0.117-0.992-10.641-1.019-21.641,0.227
		c-5.779,0.646-13.865,1.934-21.67,3.348c-10.539,1.895-18.797,3.199-18.768,3.42c0.025,0.209,8.549-0.596,19.645-0.834
		C83.249,129.771,91.104,129.256,96.794,128.621z M114.55,147.725c12.236-3.311,23.426-7.761,23.123-8.858
		c-0.295-1.096-12.189,0.69-24.438,3.997c-6.396,1.728-15.314,4.575-23.898,7.517c-11.602,3.961-20.711,6.864-20.625,7.118
		c0.045,0.239,9.559-2.156,22.051-4.35C99.444,151.365,108.243,149.43,114.55,147.725z M96.374,100.569
		c3.686,7.668,7.988,14.492,8.674,14.169c0.691-0.332-1.932-7.955-5.617-15.627c-1.904-3.958-4.77-9.26-7.666-14.466
		c-4.367-7.296-7.301-13.18-7.461-13.107c-0.143,0.073,2.363,5.969,5.424,13.597C92.007,90.784,94.448,96.564,96.374,100.569z
		 M109.501,142.283c12.338-2.48,23.674-6.154,23.453-7.269c-0.221-1.102-12.098-0.102-24.436,2.38
		c-6.455,1.289-15.449,3.535-24.137,5.89c-11.742,3.19-20.916,5.458-20.877,5.716c0.051,0.243,9.607-1.51,22.098-2.872
		C94.312,144.908,103.144,143.574,109.501,142.283z M105.032,137.505c11.971-2.113,23.002-5.392,22.814-6.47
		c-0.184-1.062-11.689-0.38-23.645,1.732c-6.256,1.102-15.008,3.053-23.434,5.128c-11.41,2.786-20.318,4.778-20.289,5.039
		c0.045,0.218,9.307-1.255,21.402-2.283C90.321,139.691,98.88,138.602,105.032,137.505z M100.866,132.972
		c11.486-1.779,22.113-4.698,21.943-5.727c-0.148-1.031-11.166-0.604-22.66,1.18c-6,0.923-14.396,2.624-22.52,4.44
		c-10.967,2.438-19.549,4.157-19.512,4.401c0.037,0.211,8.932-1.01,20.529-1.745C86.743,134.769,94.944,133.902,100.866,132.972z
		 M101.304,101.264c3.176,8.39,7.092,15.948,7.84,15.659c0.744-0.29-1.33-8.526-4.512-16.925
		c-1.646-4.311-4.168-10.152-6.746-15.869c-3.924-8.077-6.496-14.502-6.658-14.443c-0.182,0.07,1.936,6.491,4.477,14.767
		C97.575,90.591,99.64,96.88,101.304,101.264z M128.638,111.675c1.348,11.439,3.846,22.067,4.877,21.962
		c1.016-0.131,1.01-11.058-0.346-22.497c-0.686-5.889-2.021-13.968-3.432-21.887c-2.363-11.272-3.545-20.089-3.779-20.068
		c-0.229,0.033,0.396,8.686,0.959,19.797C127.345,97.209,127.937,105.687,128.638,111.675z M138.513,137.812
		c1.055-0.054,1.783-11.338,1.164-23.253c-0.318-6.139-1.148-14.561-2.078-22.851c-1.688-11.819-2.322-21.006-2.551-20.995
		c-0.252,0.011-0.184,8.99-0.34,20.525c-0.129,8.526-0.08,17.331,0.25,23.555C135.558,126.716,137.433,137.862,138.513,137.812z
		 M142.536,141.295c1.104,0.042,2.807-11.56,3.203-23.938c0.186-6.36,0.045-15.144-0.223-23.781
		c-0.705-12.355-0.59-21.906-0.812-21.909c-0.273-0.01-0.967,9.273-2.123,21.169c-0.859,8.812-1.555,17.903-1.76,24.374
		C140.44,129.57,141.419,141.268,142.536,141.295z M111.87,105.189c2.568,9.252,6,17.705,6.822,17.467
		c0.832-0.229-0.57-9.232-3.152-18.487c-1.334-4.773-3.465-11.253-5.652-17.6c-3.398-8.989-5.502-16.101-5.686-16.058
		c-0.189,0.06,1.434,7.099,3.328,16.206C108.94,93.433,110.517,100.342,111.87,105.189z M106.587,103.225
		c2.871,8.697,6.525,16.603,7.309,16.339c0.775-0.255-0.982-8.77-3.846-17.482c-1.492-4.481-3.816-10.563-6.191-16.522
		c-3.652-8.42-5.984-15.111-6.154-15.046c-0.162,0.055,1.703,6.71,3.916,15.287C103.251,92.151,105.077,98.664,106.587,103.225z
		 M116.874,107.066c2.275,9.843,5.488,18.877,6.369,18.67c0.887-0.201-0.188-9.718-2.473-19.581
		c-1.162-5.062-3.098-11.971-5.117-18.746c-3.145-9.608-5.031-17.178-5.215-17.13c-0.219,0.041,1.176,7.527,2.748,17.161
		C114.339,94.584,115.679,101.909,116.874,107.066z M122.38,109.513c2.115,10.628,5.254,20.425,6.211,20.242
		c0.955-0.196,0.123-10.441-1.992-21.088c-1.082-5.477-2.939-12.956-4.867-20.289c-3.055-10.403-4.832-18.594-5.035-18.542
		c-0.209,0.032,1.006,8.117,2.371,18.503C120.075,96.033,121.276,103.946,122.38,109.513z M51.845,106.834
		c-0.027,0.159,7.133,1.518,16.297,3.844c6.457,1.477,13.01,2.897,17.803,3.731c9.309,1.63,18.227,2.322,18.35,1.618
		c0.053-0.301-1.553-0.927-4.148-1.668c0.355-0.006,0.559-0.042,0.58-0.126c0.115-0.57-7.861-3.237-16.502-5.335
		c-4.531-1.108-10.939-2.431-17.174-3.636c-8.412-1.643-14.961-2.994-15-2.876c-0.012,0.124,6.643,1.84,15.115,4.491
		c3.959,1.146,7.955,2.275,11.512,3.229c-3.389-0.478-7.072-0.95-10.697-1.383C58.921,107.637,51.866,106.681,51.845,106.834z
		 M121.747,243.766c0.15,0.229,9.562-5.718,22.271-12.511c2.551-1.459,5.094-2.937,7.588-4.396v-5.581
		c-3.309,2.404-6.734,4.943-10.1,7.484C130.374,237.156,121.585,243.507,121.747,243.766z M128.181,252.424
		c0.137,0.221,9.426-5.643,21.953-12.336c0.494-0.281,0.98-0.562,1.473-0.844v-4.566c-1.318,0.986-2.65,1.978-3.963,2.975
		C136.7,245.905,128.011,252.18,128.181,252.424z M114.841,192.516c-9.832,9.385-17.674,16.533-17.486,16.758
		c0.188,0.209,8.637-6.611,20.209-14.621c7.939-5.842,15.896-11.879,21.461-16.523c4.744-3.955,9.166-8.041,12.582-11.458v-4.942
		c-4.357,2.842-10.297,7.229-16.146,12.116C129.796,178.551,122.134,185.569,114.841,192.516z M125.472,248.053
		c0.158,0.222,9.418-5.632,21.936-12.32c1.402-0.809,2.803-1.615,4.199-2.422v-5.008c-2.227,1.642-4.465,3.314-6.68,4.993
		C133.983,241.541,125.321,247.809,125.472,248.053z M118.337,197.93c-9.975,9.609-17.914,16.928-17.715,17.145
		c0.18,0.214,8.75-6.78,20.494-14.976c4.727-3.525,9.471-7.106,13.711-10.431c-4.307,3.717-8.99,7.917-13.561,12.098
		c-10.271,9.416-18.434,16.587-18.244,16.82c0.166,0.218,8.977-6.604,21.002-14.582c3-2.129,6.008-4.281,8.9-6.385
		c-2.863,2.441-5.82,4.998-8.703,7.545c-10.488,9.238-18.809,16.268-18.639,16.505c0.172,0.21,9.143-6.448,21.357-14.206
		c5.49-3.721,11.002-7.537,15.816-11.004c-4.846,3.91-10.273,8.483-15.529,13.037c-10.635,9.207-19.059,16.211-18.881,16.451
		c0.166,0.217,9.258-6.412,21.594-14.115c3.426-2.285,6.869-4.598,10.15-6.848c-3.184,2.558-6.479,5.254-9.709,7.95
		c-10.721,8.968-19.242,15.768-19.059,16.013c0.168,0.215,9.305-6.209,21.723-13.64c4.498-2.886,9.014-5.819,13.156-8.596
		c-4.133,3.255-8.564,6.859-12.889,10.453c-10.746,8.913-19.26,15.688-19.088,15.934c0.166,0.221,9.318-6.171,21.727-13.575
		c1.826-1.156,3.645-2.318,5.432-3.478c-1.893,1.468-3.799,2.962-5.688,4.455c-10.98,8.663-19.668,15.247-19.498,15.494
		c0.158,0.226,9.465-5.935,22.08-13.05c4.066-2.455,8.156-4.955,11.979-7.35c-3.752,2.767-7.691,5.754-11.555,8.741
		c-10.992,8.499-19.705,14.959-19.537,15.199c0.158,0.232,9.48-5.815,22.088-12.761c3.504-2.055,7.006-4.141,10.354-6.174v-44.299
		c-1.807,1.295-3.678,2.691-5.576,4.152c1.963-1.727,3.838-3.443,5.576-5.088v-6.199c-3.76,2.684-8.098,6.033-12.398,9.658
		C133.495,183.65,125.729,190.826,118.337,197.93z M119.224,154.248c12.109-4.916,22.992-10.877,22.541-11.955
		c-0.432-1.102-12.379,2.226-24.486,7.143c-6.336,2.57-15.109,6.609-23.514,10.695c-11.361,5.514-20.309,9.619-20.211,9.875
		c0.092,0.229,9.518-3.408,22.02-7.214C104.233,159.867,112.981,156.777,119.224,154.248z M150.437,148.521
		c-26.109-24.413-46.143-34.293-52.211-36.942c0.047,0,0.158,0.039,0.184,0.014c0.014-0.034-0.006-0.106-0.057-0.194
		c0.467,0.327,0.787,0.469,0.902,0.371c0.164-0.132-0.07-0.765-0.588-1.732c1.449,1.78,2.49,2.812,2.756,2.648
		c0.658-0.417-2.764-7.715-7.24-14.947c-2.305-3.734-5.727-8.708-9.158-13.563c-5.104-6.792-8.652-12.329-8.789-12.248
		c-0.17,0.094,2.971,5.683,6.822,12.952c2.854,5.37,5.9,10.859,8.264,14.63c0.068,0.115,0.127,0.225,0.213,0.338
		c-0.504-0.622-1.006-1.244-1.518-1.867c-2.855-3.428-7.066-8.068-11.254-12.493c-5.65-5.955-9.957-10.708-10.105-10.599
		c-0.113,0.105,3.982,5.235,8.812,12.242c3.52,4.799,7.139,9.63,9.934,13.008c2.262,2.714,4.578,5.257,6.566,7.277
		c-2.303-1.849-5.279-4.093-8.43-6.285c-3.658-2.55-8.914-5.964-14.049-9.201c-6.939-4.365-12.297-7.855-12.367-7.744
		c-0.072,0.089,5.264,3.918,11.912,9.223c4.725,3.618,9.547,7.238,13.141,9.747c4.934,3.437,9.801,6.423,12.365,7.737l-0.045,0.132
		c-2.469-1.425-7.729-3.931-13.395-6.214c-4.129-1.672-10.016-3.833-15.738-5.822c-7.736-2.719-13.744-4.932-13.789-4.802
		c-0.047,0.102,5.998,2.643,13.666,6.336c5.416,2.465,10.918,4.923,14.992,6.562c6.186,2.507,12.184,4.488,14.6,4.983
		c4.527,1.864,26.146,11.658,54.773,38.903V149.6c-0.344-0.326-0.666-0.616-1.018-0.938c0.246,0,0.598-0.477,1.018-1.389v-16.872
		C150.142,139.83,149.683,147.617,150.437,148.521z M109.808,186.046c-10.109,8.898-18.129,15.653-17.949,15.884
		c0.158,0.211,8.795-6.201,20.551-13.669c8.072-5.468,16.191-11.131,21.879-15.505c7.293-5.613,13.889-11.535,17.318-15.195v-2.858
		c-4.031,1.912-12.447,7.321-20.701,13.673C125.128,172.818,117.278,179.457,109.808,186.046z M150.728,95.057
		c-1.643,8.944-3.168,18.203-3.943,24.803c-1.488,12.61-1.506,24.673-0.373,24.796c1.08,0.127,3.678-10.634,5.195-22.641V90.247
		C151.327,91.789,151.04,93.396,150.728,95.057z M151.606,268.954v-0.487c-1.008,0.717-1.564,1.145-1.527,1.203
		C150.103,269.717,150.642,269.459,151.606,268.954z M129.284,167.17c11.342-7.791,21.172-16.353,20.469-17.359
		c-0.697-1.025-12.219,5.072-23.545,12.854c-5.926,4.065-14.027,10.181-21.748,16.257c-10.439,8.225-18.689,14.447-18.533,14.693
		c0.152,0.22,9.018-5.643,20.986-12.361C115.157,176.297,123.45,171.164,129.284,167.17z M132.683,256.234
		c0.129,0.21,7.988-4.732,18.924-10.678v-3.695C140.956,249.91,132.53,256.007,132.683,256.234z M124.636,160.688
		c11.508-6.436,21.668-13.757,21.078-14.776c-0.568-1.04-12.125,3.774-23.631,10.209c-6.041,3.37-14.309,8.499-22.227,13.635
		c-10.693,6.933-19.146,12.161-19.016,12.396c0.129,0.223,9.107-4.595,21.162-9.963
		C110.308,168.186,118.692,164.006,124.636,160.688z M137.212,259.9c0.113,0.174,5.895-3.434,14.395-8.186v-2.779
		C143.228,255.211,137.081,259.688,137.212,259.9z M140.792,262.254c0.09,0.146,4.324-2.292,10.814-5.746v-2.043
		C145.138,259.012,140.698,262.086,140.792,262.254z M144.704,265.909c0.064,0.115,2.666-1.324,6.902-3.552v-1.376
		C147.329,263.904,144.62,265.771,144.704,265.909z"/>
	<linearGradient id="SVGID_2_" gradientUnits="userSpaceOnUse" x1="3.708" y1="62.1943" x2="156.0379" y2="44.6485">
		<stop  offset="0" style="stop-color:#9DBA46"/>
		<stop  offset="0.8061" style="stop-color:#5C7E41"/>
	</linearGradient>
	<path fill="url(#SVGID_2_)" d="M147.772,58.945c1.203-4.998,2.396-10.82,3.184-17.13c0.268-2.148,0.488-4.358,0.65-6.604V19.304
		c-0.492-6.076-1.607-12.203-3.59-18.157c0.533,6.528,0.686,13.396,0.576,20.213c-0.104,6.816-0.492,13.583-1.049,19.896
		c-1.102,12.627-2.924,23.467-4.682,29.366c-0.465,1.541-0.844,2.835-1.121,3.867c-0.648-0.497-1.307-0.985-1.963-1.473l0.016,0.004
		l0.195-0.779c1.652-6.593,2.963-12.98,3.9-19.234c0.943-6.258,1.504-12.387,1.697-18.451c0.184-6.07-0.014-12.075-0.623-18.095
		C144.413,11.003,143.522,5.532,142.3,0h-0.412c-0.086,3.358-0.092,6.619-0.066,9.809c-0.488-3.371-1.127-6.656-1.959-9.809h-0.715
		c0.141,5.145,0.287,10.413,0.381,15.719c0.004,1.017,0.02,2.035,0.039,3.054c0.059,4.784,0.074,9.559-0.01,14.286
		c-0.055,3.011-0.146,5.999-0.299,8.954c-0.129,2.794-0.328,5.551-0.568,8.266c-0.344,4.021-0.824,7.913-1.393,11.616
		c-0.375,2.325-0.746,4.537-1.197,6.598c-0.01,0.109-0.236,1.18-0.344,1.689c-1.15-0.776-2.314-1.536-3.518-2.276
		c0.373-2.255,0.844-6.237,1.221-11.303c0.4-5.6,0.676-12.518,0.553-19.89c-0.129-7.373-0.662-15.2-1.848-22.611
		c-0.814-4.98-1.928-9.759-3.412-14.1h-1.348c0.768,4.589,1.406,9.559,1.924,14.677c0.771,7.459,1.279,15.214,1.576,22.461
		c0.305,7.251,0.412,14.001,0.328,19.451c-0.066,4.482-0.24,8.086-0.523,10.371c-1.523-0.913-3.076-1.786-4.641-2.625
		c0.117-0.977,0.246-2.256,0.391-3.823c0.238-2.505,0.486-5.842,0.633-9.722c0.252-6.438,0.152-14.349-0.664-22.432
		c-0.729-7.119-2.004-14.413-4.314-20.954c-0.07-0.209-0.148-0.417-0.223-0.621c-0.877-2.381-1.896-4.656-3.068-6.785h-4.098
		c0.844,2.717,1.631,5.548,2.367,8.459c0.191,0.75,0.373,1.501,0.564,2.256c1.369,5.761,2.527,11.74,3.459,17.553
		c0.258,1.643,0.5,3.266,0.729,4.87c1.57,11.164,2.225,21.266,1.871,27.397c-0.051,0.912-0.105,1.733-0.168,2.47
		c-1.465-0.749-2.951-1.455-4.467-2.139c-0.059-0.952-0.146-2.141-0.229-3.542c-0.412-6.618-1.254-19.9-3.672-33.542
		c-1.195-6.823-2.791-13.727-4.916-19.936c-0.441-1.319-0.93-2.597-1.434-3.846h-2.963c0.582,2.031,1.137,4.102,1.691,6.207
		c1.701,6.484,3.277,13.246,4.637,19.738c2.729,12.989,4.617,24.92,5.018,31.483c0.07,1.011,0.125,1.904,0.18,2.687
		c-0.42-0.183-0.832-0.377-1.258-0.557c-0.078-0.824-0.152-1.768-0.238-2.851c-0.525-6.78-1.615-20.386-4.613-34.049
		c-1.5-6.835-3.471-13.681-6.092-19.697C104.741,1.945,104.269,0.963,103.8,0h-3.969c0.703,1.943,1.387,3.93,2.049,5.952
		c2.1,6.388,4.047,13.082,5.742,19.545c0.867,3.328,1.674,6.595,2.398,9.722C107.286,24.115,102.899,10.926,96.079,0h-2.004
		c9.967,20.591,17.398,52.956,18.381,58.086c-1.377-0.528-2.766-1.026-4.158-1.498l-0.152-1.342
		c-0.744-4.889-3.084-16.762-7.842-29.413c-2.369-6.325-5.359-12.847-9.031-18.789C89.745,4.575,88.083,2.214,86.3,0h-2.793
		c1.629,2.701,3.221,5.551,4.756,8.491c3.23,6.18,6.225,12.731,8.816,18.98c5.15,12.438,8.748,23.698,9.498,28.566
		c-2.223-0.712-4.451-1.365-6.705-1.938c-0.064-0.438-0.141-0.923-0.156-1.161c-1.104-6.89-2.883-15.913-6.281-24.775
		c-2.482-6.486-5.664-12.647-9.557-18.025c-2.822-3.901-5.951-7.251-9.344-9.923C74.444,0.141,74.347,0.074,74.247,0h-4.973
		c0.812,0.861,1.631,1.757,2.447,2.698c1.865,2.141,3.713,4.481,5.549,6.976c1.309,1.81,2.619,3.692,3.867,5.652
		c2.506,3.907,4.859,8.08,6.992,12.405c0.719,1.487,1.424,2.986,2.084,4.498c3.266,7.502,5.617,14.928,6.893,21.203
		c-1.891-0.431-3.77-0.807-5.672-1.138l0.842-0.042c-0.219-0.47-0.975-2.683-1.328-3.559c-1.143-3.161-2.592-6.936-4.273-10.92
		c-1.91-4.536-4.121-9.204-6.482-13.627c-3.062-5.735-6.303-10.984-9.76-15.202C67.19,4.989,63.808,1.928,60.345,0.07
		c-0.047-0.024-0.1-0.048-0.146-0.07h-1.906c1.418,1.37,2.965,2.958,4.604,4.771c0.5,0.564,1.018,1.146,1.533,1.752
		c2.709,3.131,5.531,6.766,8.334,10.813c0.457,0.658,0.924,1.335,1.371,2.018c2.633,3.928,5.172,8.163,7.521,12.54
		c2.893,5.373,5.406,10.776,7.234,15.764c0.367,0.998,0.715,1.95,1.035,2.852c0.107,0.241,0.441,1.224,0.516,1.41
		c0.02,0.031,0.051,0.126,0.078,0.219c-1.051-0.172-2.086-0.333-3.137-0.478c-0.396-0.896-0.873-2.054-1.455-3.437
		c-1.254-3.055-3.066-7.436-5.359-12.313c-2.297-4.878-5.07-10.254-8.262-15.289c-3.191-5.032-6.783-9.723-10.717-13.238
		c-3.936-3.514-8.201-5.846-12.736-6.161c3.334,2.063,6.914,5.321,10.488,9.234c3.566,3.917,7.141,8.486,10.445,13.178
		c6.6,9.376,12.158,19.223,14.635,25.208c0.402,0.975,0.764,1.833,1.072,2.577c-0.555-0.067-1.111-0.137-1.676-0.192
		c-0.518-1.006-1.154-2.344-1.918-3.937c-1.367-2.897-3.346-6.979-5.803-11.483c-2.459-4.5-5.393-9.425-8.672-14.013
		c-3.281-4.59-6.891-8.844-10.734-12.004c-3.832-3.156-7.883-5.219-12.002-5.432c3.176,2.066,6.67,5.112,10.195,8.701
		c3.527,3.587,7.088,7.715,10.432,11.943c6.662,8.45,12.42,17.293,15.1,22.988c0.555,1.169,1.051,2.191,1.484,3.065
		c-1.332-0.112-2.666-0.2-3.982-0.263c-0.518-0.928-1.102-2.012-1.754-3.223c-1.482-2.749-3.621-6.529-6.232-10.65
		c-2.629-4.127-5.709-8.603-9.08-12.745c-3.365-4.145-7-7.96-10.748-10.763c-3.746-2.805-7.572-4.603-11.301-4.71
		c3.037,2.071,6.449,4.907,9.93,8.17c3.473,3.259,7.053,6.943,10.406,10.705c6.732,7.529,12.674,15.37,15.582,20.771
		c0.459,0.848,0.877,1.633,1.271,2.357c-1.432-0.045-2.865-0.053-4.293-0.036c-0.504-0.816-1.082-1.79-1.709-2.825
		c-0.172-0.284-0.35-0.576-0.531-0.874c-1.482-2.432-3.449-5.529-5.779-8.862c-2.625-3.762-5.705-7.823-9.084-11.566
		c-3.275-3.644-6.83-6.987-10.51-9.456c-3.668-2.471-7.469-4.065-11.229-4.215c2.488,1.382,5.928,3.972,9.691,7.21
		c1.471,1.266,2.986,2.631,4.508,4.055c-1.859-1.521-3.77-2.906-5.732-4.067c-3.619-2.133-7.377-3.53-11.18-3.718
		c3.15,1.128,10.309,6.613,17.482,12.974c3.58,3.179,7.166,6.579,10.26,9.759c3.088,3.182,5.686,6.149,7.283,8.466
		c0.893,1.297,1.654,2.39,2.293,3.259c-1.355,0.076-2.693,0.175-4.035,0.307c-0.791-0.805-1.889-2.227-3.129-3.771
		c-0.371-0.462-0.771-0.959-1.188-1.477c-3.396-4.236-8.213-10.03-13.914-14.917c-0.145-0.126-0.287-0.246-0.434-0.366
		c-2.969-2.509-6.205-4.719-9.547-6.401c-0.068-0.034-0.127-0.068-0.197-0.103c-3.457-1.729-7.123-2.722-10.838-2.729
		c2.865,0.692,9.428,4.9,16.197,10.015c0.428,0.322,0.846,0.645,1.27,0.967c3.604,2.783,7.211,5.774,10.279,8.587
		c2.244,2.041,4.189,3.985,5.646,5.677c0.621,0.718,1.18,1.391,1.68,2.011c0.861,1.077,1.611,1.988,2.262,2.714
		c-2.041,0.242-4.064,0.552-6.072,0.924c-1.105-0.68-2.414-2.199-3.951-4.127c-0.535-0.664-1.109-1.376-1.697-2.11
		c-2.922-3.597-6.344-7.922-10.939-10.854c-0.389-0.248-0.785-0.488-1.186-0.712c-2.539-1.398-5.432-2.323-8.711-2.58
		c-0.068-0.004-0.123-0.006-0.178-0.011c-3.604-0.239-7.713,0.398-12.449,2.306c3.645-1.062,9.906,0.681,16.08,3.627
		c0.365,0.177,0.742,0.355,1.121,0.539c5.564,2.768,10.934,6.454,14.133,9.899c0.641,0.69,1.24,1.372,1.779,2.004
		c0.924,1.074,1.785,2.006,2.471,2.735c-1.295,0.291-2.58,0.603-3.869,0.945c-1.523-0.56-3.846-2.163-6.531-4.021
		c-3.846-2.651-8.092-5.928-12.932-7.983c-2.414-1.029-4.982-1.754-7.73-1.946c-2.729-0.185-5.648,0.159-8.756,1.265
		c2.812-0.718,8.096,0.511,13.586,2.552c5.502,2.052,11.207,4.912,14.9,7.463c1.926,1.328,3.961,2.571,5.201,3.306
		c-0.771,0.225-1.529,0.459-2.293,0.703c-1.164-0.513-2.982-1.499-4.561-2.498c-0.307-0.191-0.602-0.377-0.922-0.573
		c-3.285-2.049-7.303-4.649-11.785-6.396c-2.248-0.872-4.609-1.536-7.043-1.818c-2.668-0.304-5.41-0.166-8.152,0.621
		c2.797-0.372,7.475,0.791,12.277,2.557c0.635,0.224,1.25,0.459,1.865,0.701c4.438,1.726,8.801,3.851,11.781,5.637
		c0.455,0.277,0.914,0.544,1.332,0.801c1.139,0.677,2.178,1.274,2.992,1.71c-0.891,0.308-1.771,0.629-2.656,0.965
		c-1.098-0.374-2.992-1.079-4.205-1.62c-2.871-1.29-7.229-3.21-11.91-4.526c-4.691-1.31-9.715-2.015-13.963-0.863
		c3.115-0.194,8.01,0.898,12.828,2.354c4.83,1.458,9.588,3.276,12.375,4.527c0.959,0.428,1.773,0.79,2.475,1.073
		c-0.287,0.125-0.584,0.254-0.881,0.382c-1.35-0.312-2.871-0.847-4.59-1.461c-2.756-0.988-6.17-2.317-10.115-3.085
		c-3.936-0.768-8.41-0.971-13.25,0.296c2.703,0.07,6.945,0.822,11.232,1.803c4.27,0.985,8.559,2.198,11.352,3.191
		c0.861,0.312,1.562,0.546,2.094,0.714c-1.271,0.601-2.527,1.224-3.76,1.878c-0.535-0.182-1.082-0.374-1.57-0.555
		c-0.221-0.086-0.451-0.175-0.678-0.264c-2.422-0.906-5.635-2.13-9.146-2.896c-3.734-0.829-7.811-1.139-11.578-0.001
		c2.41-0.134,6.221,0.514,10.027,1.426c0.184,0.045,0.365,0.088,0.547,0.135c3.596,0.88,7.146,1.97,9.514,2.846
		c0.295,0.108,0.566,0.211,0.828,0.304c0.053,0.017,0.084,0.03,0.129,0.048c-0.191,0.107-0.391,0.219-0.58,0.332
		c-0.881-0.162-1.873-0.438-2.977-0.75c-1.971-0.551-4.416-1.305-7.211-1.647c-2.777-0.335-5.891-0.258-9.213,0.866
		c1.887-0.084,4.891,0.228,7.912,0.7c3.031,0.474,6.084,1.105,8.082,1.662c0.547,0.155,1.018,0.274,1.373,0.365
		c-0.889,0.538-1.775,1.087-2.633,1.653c-0.055-0.139-0.146-0.257-0.326-0.306c-0.092-0.014-0.176-0.029-0.27-0.042
		c-1.186-0.174-2.352-0.384-3.537-0.523c-0.967-0.109-1.904-0.151-2.848-0.16c-2.15-0.009-4.396,0.28-7.08,1.317
		c0.941-0.046,4.084,0.064,5.6,0.3c0.404,0.063,1.297,0.119,1.701,0.187c1.08,0.204,3.273,0.394,4.006,0.595
		c0.18,0.052,0.371,0.097,0.543,0.129c-0.812,0.579-1.621,1.167-2.414,1.765c-0.994-0.007-1.855-0.001-2.6,0.031
		c-0.945,0.036-1.736,0.116-2.49,0.257c-1.523,0.283-2.887,0.814-4.951,1.761l4.289-0.118l3.404-0.095
		c-2.576,2.101-5.004,4.336-7.25,6.702c10.053-8.077,22.605-12.997,36.143-15.2c0.633-0.103,16.031-7.254,16.662-7.347
		c0.646-0.094-13.471,6.879-12.816,6.8c7.525-0.934,15.299-1.062,23.066-0.459c0.762,0.06,19.771-3.995,20.543-3.923
		c0.799,0.082-16.65,4.288-15.846,4.38c1.557,0.179,3.107,0.389,4.658,0.626c0.645,0.1,21.389-4.869,22.033-4.757
		c0.604,0.1-18.924,5.271-18.33,5.38c11.811,2.157,23.264,5.955,33.418,11.115c0.926,0.461,22.328,2.026,23.213,2.514
		c1.4,0.753-17.752,0.447-16.42,1.257c0.551,0.332,1.086,0.663,1.627,0.998c0.109,0.065,12.555-0.08,12.662-0.012
		c0.178,0.117-11.973,0.445-11.789,0.562c0.602,0.378,1.178,0.754,1.766,1.133c0.484,0.328,18.848,1.388,19.334,1.717
		c0.74,0.497-16.4,0.256-15.682,0.764c6.49,4.546,12.324,9.46,17.441,14.668c0.059,0.062,1.311,0.407,3.018,0.864V83.167
		c-0.635-0.635-1.283-1.264-1.936-1.888c0.18-0.417,0.408-0.933,0.488-1.149c0.354-0.855,0.768-1.813,1.168-2.727
		c0.1-0.201,0.193-0.415,0.279-0.625v-5.131c-0.68,2.064-1.338,3.876-1.953,5.363c-0.32,0.803-0.631,1.524-0.906,2.17
		c-0.068,0.162-0.227,0.535-0.389,0.884c-0.197-0.176-0.381-0.359-0.576-0.536c0.379-1.1,0.941-2.686,1.414-3.908
		c0.672-1.758,1.51-3.95,2.41-6.487v-7.911c-1.338,5.796-2.707,10.584-3.938,13.813c-0.488,1.284-0.916,2.385-1.246,3.311
		c-1.064-0.921-2.143-1.825-3.246-2.713c0.277-1.081,0.812-3.066,1.246-4.542C145.321,68.108,146.556,63.941,147.772,58.945z
		 M69.345,50.738c-0.73-0.975-1.76-2.576-2.828-4.119c-2.168-3.137-5.23-7.44-8.902-11.819c1.166,1.28,2.312,2.55,3.377,3.792
		c3.02,3.506,5.551,6.786,7.174,9.411c0.105,0.178,0.221,0.355,0.32,0.53c0.486,0.8,0.941,1.53,1.346,2.191
		C69.669,50.731,69.503,50.733,69.345,50.738z M113.798,58.625l0.219-0.023c0.008,0.039,0.008,0.074,0.008,0.112
		C113.95,58.684,113.874,58.653,113.798,58.625z M138.405,71.841l-0.035,0.136c-0.33-0.237-0.674-0.47-1.01-0.705l0.482-1.673
		c0.859-3.133,1.746-7.333,2.553-12.16c0.16-0.908,0.311-1.833,0.457-2.765c0.516-3.297,0.969-6.733,1.318-10.241
		c-0.111,2.875-0.283,5.766-0.564,8.693C141.026,59.138,140.044,65.314,138.405,71.841z M150.356,99.701
		c0.424,0.451,0.836,0.908,1.25,1.366V99.8C150.774,99.667,150.269,99.615,150.356,99.701z"/>
	<g>
		<linearGradient id="SVGID_3_" gradientUnits="userSpaceOnUse" x1="67.9873" y1="217.125" x2="131.7635" y2="252.2019">
			<stop  offset="0" style="stop-color:#ADCB55"/>
			<stop  offset="0.8061" style="stop-color:#6A8D54"/>
		</linearGradient>
		<path fill="url(#SVGID_3_)" d="M147.491,247.628c-3.26,4.011-6.768,8.13-10.264,12.019c-3.486,3.887-6.969,7.535-10.188,10.61
			c3.732-1.599,7.539-4.469,11.23-8.003c3.68-3.549,7.256-7.759,10.523-12.057c0.965-1.268,1.906-2.549,2.812-3.815v-3.919
			C150.288,244.146,148.915,245.876,147.491,247.628z"/>
		<linearGradient id="SVGID_4_" gradientUnits="userSpaceOnUse" x1="69.6973" y1="213.9922" x2="133.4814" y2="249.0735">
			<stop  offset="0" style="stop-color:#ADCB55"/>
			<stop  offset="0.8061" style="stop-color:#6A8D54"/>
		</linearGradient>
		<path fill="url(#SVGID_4_)" d="M117.589,264.241c12.438-4.054,23.863-14.81,31.814-23.937c-1.645,1.949-3.404,3.965-5.242,6.002
			c-3.467,3.871-7.215,7.814-10.961,11.485c-3.742,3.678-7.471,7.082-10.938,9.884c4.084-0.975,8.199-3.403,12.162-6.631
			c3.969-3.23,7.791-7.267,11.271-11.461c2.107-2.551,4.086-5.154,5.91-7.675v-7.64C142.731,244.17,128.151,259.152,117.589,264.241
			z"/>
		<linearGradient id="SVGID_5_" gradientUnits="userSpaceOnUse" x1="66.2334" y1="220.2246" x2="130.0387" y2="255.3175">
			<stop  offset="0" style="stop-color:#ADCB55"/>
			<stop  offset="0.8061" style="stop-color:#6A8D54"/>
		</linearGradient>
		<path fill="url(#SVGID_5_)" d="M144.644,261.491c-3.449,3.915-6.982,7.487-10.369,10.304c4.736-1.074,9.129-3.799,13.088-7.432
			c0.129-0.113,0.258-0.227,0.373-0.347c1.355-1.259,2.633-2.639,3.871-4.078v-6.907c-1.869,2.416-3.803,4.807-5.775,7.099
			C145.437,260.587,145.038,261.045,144.644,261.491z"/>
		<linearGradient id="SVGID_6_" gradientUnits="userSpaceOnUse" x1="71.5654" y1="210.5459" x2="135.367" y2="245.6368">
			<stop  offset="0" style="stop-color:#ADCB55"/>
			<stop  offset="0.8061" style="stop-color:#6A8D54"/>
		</linearGradient>
		<path fill="url(#SVGID_6_)" d="M137.569,241.17c-4.029,3.402-8.443,6.866-12.893,9.998c-4.438,3.129-8.914,5.912-13.074,7.949
			c2.506-0.457,5.004-1.227,7.455-2.23c2.445-1.002,4.852-2.239,7.188-3.641c4.676-2.803,9.062-6.256,12.986-9.785
			c5.115-4.637,9.393-9.403,12.375-13.021v-2.425C148.419,231.453,143.403,236.242,137.569,241.17z"/>
		<linearGradient id="SVGID_7_" gradientUnits="userSpaceOnUse" x1="76.5596" y1="201.4814" x2="140.3547" y2="236.5688">
			<stop  offset="0" style="stop-color:#ADCB55"/>
			<stop  offset="0.8061" style="stop-color:#6A8D54"/>
		</linearGradient>
		<path fill="url(#SVGID_7_)" d="M151.347,221.713c-0.484-0.153-13.076-11.003-13.557-11.164c-1.164-0.392-2.314-0.801-3.459-1.235
			c-0.584-0.22,9.992,8.929,9.422,8.698c-0.566-0.223-12.285-9.827-12.832-10.06c-5.6-2.354-10.934-5.221-15.812-8.558
			c-0.426-0.285,6.865,9.591,6.455,9.292c-0.418-0.288-8.52-10.746-8.914-11.043c-8.6-6.363-15.543-14.259-19.609-23.442
			c0.701,2.445,1.615,4.865,2.648,7.246l-2.352-1.299l-2.932-1.613c1.096,1.392,1.854,2.25,2.801,2.986
			c0.475,0.371,1,0.711,1.629,1.07c0.512,0.293,1.105,0.602,1.807,0.951c0.338,0.699,0.684,1.398,1.053,2.09
			c-0.152-0.044-0.297-0.082-0.445-0.111c-0.578-0.119-2.16-0.77-2.982-1.02c-0.305-0.092-0.943-0.376-1.256-0.475
			c-1.121-0.381-3.346-1.428-3.977-1.794c1.484,1.676,2.941,2.681,4.436,3.44c0.65,0.332,1.314,0.637,2.029,0.912
			c0.867,0.323,1.75,0.596,2.643,0.897c0.062,0.024,0.121,0.044,0.191,0.066c0.15,0.03,0.26-0.023,0.348-0.11
			c0.406,0.707,0.807,1.41,1.238,2.107c-0.285-0.069-0.648-0.15-1.111-0.246c-1.572-0.324-3.91-0.978-6.172-1.734
			c-2.27-0.753-4.461-1.609-5.732-2.341c1.893,1.962,4.025,3.132,6.078,3.893c2.043,0.758,4.01,1.11,5.57,1.431
			c0.885,0.182,1.674,0.345,2.348,0.551c0.09,0.146,0.184,0.292,0.275,0.436c-0.043-0.003-0.072-0.008-0.111-0.012
			c-0.209-0.031-0.43-0.057-0.684-0.087c-1.957-0.241-4.807-0.754-7.605-1.428c-0.146-0.034-0.287-0.069-0.428-0.104
			c-2.98-0.73-5.832-1.637-7.453-2.6c2.207,2.139,5.139,3.384,8.018,4.142c2.719,0.725,5.369,1.028,7.363,1.259
			c0.189,0.023,0.389,0.045,0.566,0.062c0.414,0.049,0.865,0.111,1.314,0.18c0.617,0.895,1.27,1.773,1.934,2.645
			c-0.436-0.072-1.004-0.162-1.736-0.26c-2.275-0.305-5.688-0.998-9.002-1.844c-3.318-0.851-6.535-1.848-8.428-2.764
			c2.912,2.611,6.078,4.062,9.074,4.938c3.012,0.877,5.852,1.182,8.113,1.482c1.43,0.19,2.67,0.363,3.717,0.631
			c0.164,0.192,0.324,0.383,0.484,0.578c-0.59-0.057-1.293-0.098-2.121-0.143c-2.387-0.134-6.324-0.572-10.193-1.285
			c-3.857-0.715-7.645-1.709-9.723-2.95c2.531,2.309,6.26,3.618,9.973,4.383c3.719,0.765,7.422,0.99,9.873,1.122
			c1.035,0.061,2.602,0.249,3.496,0.383c0.484,0.545,0.99,1.083,1.508,1.617c-0.729,0.01-1.664,0.051-2.697,0.116
			c-0.389,0.026-0.803,0.049-1.221,0.077c-2.695,0.173-6.479,0.085-10.16-0.306c-0.52-0.049-1.031-0.108-1.549-0.177
			c-3.963-0.499-7.617-1.361-9.42-2.617c1.611,1.521,3.473,2.597,5.424,3.34c1.791,0.681,3.662,1.061,5.523,1.257
			c3.734,0.395,7.451,0.028,10.449-0.218c0.291-0.021,0.58-0.044,0.848-0.068c1.459-0.127,3.078-0.162,4.074-0.098
			c0.441,0.438,0.875,0.874,1.324,1.302c-1.123,0.069-2.986,0.202-4.789,0.435c-3.467,0.449-8.455,0.39-12.988-0.158
			c-4.535-0.544-8.629-1.58-10.322-3.082c1.76,1.877,3.648,3.154,5.607,4.004c1.977,0.848,4.01,1.262,6.049,1.415
			c4.092,0.304,8.197-0.448,11.812-0.913c2.543-0.33,4.74-0.607,5.986-0.445c0.771,0.692,1.545,1.368,2.334,2.031
			c-0.744,0.26-1.676,0.6-2.709,1.014c-0.602,0.246-1.256,0.503-1.949,0.755c-3.443,1.243-8.484,1.876-13.324,1.806
			c-0.328-0.007-0.646-0.02-0.959-0.024c-5.332-0.168-10.297-1.196-12.443-3.235c2.604,3.016,5.215,4.928,7.807,6.045
			c0.033,0.021,0.076,0.037,0.111,0.053c2.369,0.999,4.707,1.391,6.971,1.326c0.357-0.01,0.715-0.034,1.066-0.068
			c4.232-0.388,8.146-2.162,11.457-3.608c0.678-0.296,1.316-0.587,1.934-0.855c1.762-0.785,3.215-1.372,4.219-1.444
			c1.26,0.973,2.561,1.902,3.883,2.796c-0.705,0.274-1.561,0.642-2.549,1.085c-0.574,0.248-1.203,0.515-1.891,0.791
			c-1.605,0.652-3.654,1.301-5.928,1.915c-3.139,0.853-6.707,1.636-10.201,2.273c-0.402,0.073-0.812,0.147-1.215,0.219
			c-6.52,1.124-12.576,1.696-14.795,1.147c2.578,1.326,5.467,1.945,8.473,1.981c0.062,0,0.113,0,0.186,0.003
			c2.916,0.027,5.936-0.348,8.898-1.025c0.137-0.031,0.275-0.064,0.42-0.1c5.705-1.346,11.104-3.639,14.98-5.358
			c0.469-0.211,0.924-0.413,1.344-0.599c1.408-0.63,2.68-1.225,3.518-1.498c0.885,0.572,1.783,1.121,2.691,1.652
			c-0.764,0.377-1.674,0.866-2.768,1.439c-1.926,1.035-4.785,2.166-8.07,3.266c-3.271,1.098-6.973,2.171-10.592,3.093
			c-7.238,1.843-14.154,3.087-16.744,2.741c2.695,1.227,5.811,1.604,9.078,1.418c1.766-0.104,3.594-0.378,5.412-0.767
			c-1.562,0.437-3.092,0.847-4.561,1.196c-3.76,0.901-7.072,1.461-9.295,1.531c2.664,1.24,5.861,1.49,9.287,1.093
			c3.428-0.396,7.082-1.442,10.662-2.796c3.67-1.387,7.258-3.1,10.424-4.764c2.799-1.479,5.271-2.923,7.166-4.074
			c0.242-0.141,0.457-0.279,0.684-0.416c0.811-0.498,1.547-0.959,2.193-1.346c0.98,0.52,1.979,1.027,2.984,1.51
			c-0.531,0.357-1.104,0.752-1.719,1.177c-3.945,2.705-10.869,6.01-18.211,8.819c-3.684,1.406-7.477,2.681-11.045,3.697
			c-3.572,1.018-6.953,1.764-9.795,2.11c2.625,1.257,5.91,1.382,9.51,0.772c3.586-0.604,7.48-1.943,11.295-3.61
			c3.812-1.668,7.549-3.664,10.834-5.585c3.285-1.924,6.123-3.773,8.125-5.154c0.883-0.604,1.676-1.145,2.369-1.602
			c0.941,0.43,1.891,0.844,2.855,1.24c-0.607,0.451-1.318,0.984-2.123,1.597c-3.902,2.983-11.043,7.052-18.678,10.524
			c-3.816,1.735-7.77,3.322-11.494,4.543c-3.721,1.227-7.227,2.092-10.172,2.383c2.934,1.33,6.471,1.35,10.266,0.535
			c3.783-0.822,7.812-2.476,11.721-4.486c3.912-2.003,7.703-4.369,11.018-6.609c3.297-2.242,6.127-4.361,8.115-5.879
			c1.098-0.832,2.016-1.529,2.742-2.038c0.4,0.159,0.818,0.312,1.227,0.464c-0.488,0.404-1.035,0.871-1.664,1.402
			c-3.855,3.263-11.219,8.094-19.15,12.227c-3.975,2.071-8.068,3.959-11.938,5.398c-3.875,1.434-7.525,2.414-10.559,2.65
			c3.25,1.402,7.041,1.31,11.016,0.281c3.98-1.027,8.141-2.992,12.154-5.338c4.002-2.344,7.85-5.079,11.182-7.64
			c3.338-2.56,6.156-4.942,8.109-6.608c0.9-0.756,1.646-1.385,2.242-1.865c0.773,0.273,1.553,0.535,2.336,0.785
			c-0.047,0.059-0.105,0.117-0.121,0.131c-0.131,0.101-0.709,0.661-0.859,0.791c-0.549,0.514-1.127,1.047-1.738,1.607
			c-3.053,2.801-6.727,5.645-10.652,8.332c-3.188,2.191-6.465,4.217-9.688,5.999c-0.561,0.311-1.117,0.616-1.67,0.905
			c-3.381,1.805-6.652,3.312-9.635,4.516c-0.57,0.235-1.137,0.453-1.689,0.662c-2.02,0.766-3.861,1.371-5.477,1.84
			c-0.055,0.527,0.133,0.681,0.559,0.467c0.48,0.039,0.973,0.047,1.467,0.039c3.062-0.051,6.502-0.963,10.158-2.544
			c3.908-1.682,8.031-4.16,12.197-7.039c3.223-2.22,6.412-4.665,9.359-7.125c2.582-2.159,4.941-4.253,6.854-6.037
			c0.57-0.479,1.879-1.739,2.201-1.987l-0.562-0.33c1.43,0.449,2.869,0.862,4.322,1.236c-3.115,3.892-7.408,8.195-12.34,12.229
			c-0.998,0.807-2.027,1.592-3.057,2.369c-3.02,2.231-6.141,4.287-9.273,6.091c-1.57,0.909-3.145,1.752-4.697,2.536
			c-2.162,1.07-4.281,2.032-6.334,2.848c-3.131,1.242-6.062,2.158-8.633,2.834c3.133,0.593,6.377,0.527,9.688-0.107
			c3.309-0.641,6.672-1.844,10.021-3.533c4.615-2.339,9.02-5.469,13.059-9.076c5.523-4.92,9.975-10.537,13.213-14.912
			c0.088-0.158,0.312-0.473,0.508-0.752c0.861,0.199,1.729,0.379,2.594,0.552v-10.163c-3.697-0.678-7.389-1.564-11.029-2.674
			C140.128,211.303,151.804,221.859,151.347,221.713z M125.286,216.367c-0.129,0.082-0.273,0.166-0.412,0.25
			c-2.064,1.24-4.979,2.608-8.338,3.957c-1.18,0.477-2.428,0.954-3.689,1.421c4.111-1.722,7.771-3.608,10.396-5.007
			c1.281-0.688,2.57-1.43,3.43-1.844c0.105,0.061,0.225,0.121,0.334,0.186C126.483,215.641,125.911,215.987,125.286,216.367z"/>
		<linearGradient id="SVGID_8_" gradientUnits="userSpaceOnUse" x1="64.1318" y1="224.4312" x2="127.8188" y2="259.459">
			<stop  offset="0" style="stop-color:#ADCB55"/>
			<stop  offset="0.8061" style="stop-color:#6A8D54"/>
		</linearGradient>
		<path fill="url(#SVGID_8_)" d="M145.831,274.811c1.98-1.471,3.906-3.235,5.775-5.223v-2.49
			C149.646,269.898,147.706,272.512,145.831,274.811z"/>
	</g>
</g>
</svg>
